<mxfile host="Electron" modified="2024-03-25T18:27:58.829Z" agent="Mozilla/5.0 (Windows NT 10.0; Win64; x64) AppleWebKit/537.36 (KHTML, like Gecko) draw.io/22.1.11 Chrome/114.0.5735.289 Electron/25.9.8 Safari/537.36" etag="2dTZP5PRyNk7jWi6hmw9" version="22.1.11" type="device">
  <diagram id="4XP_FJfPYxJ1v8Iz75sT" name="Страница 1">
    <mxGraphModel dx="2899" dy="2397" grid="1" gridSize="10" guides="1" tooltips="1" connect="1" arrows="1" fold="1" page="1" pageScale="1" pageWidth="827" pageHeight="1169" math="0" shadow="0">
      <root>
        <mxCell id="0" />
        <mxCell id="1" parent="0" />
        <mxCell id="OrC8Zif0g1K16IDU79yB-34" value="" style="verticalLabelPosition=bottom;verticalAlign=top;html=1;shape=mxgraph.basic.plaque;dx=18.4;whiteSpace=wrap;fillColor=#f5f5f5;fontColor=#333333;strokeColor=#666666;" parent="1" vertex="1">
          <mxGeometry x="-689.13" y="-978.5" width="1036" height="950" as="geometry" />
        </mxCell>
        <mxCell id="OrC8Zif0g1K16IDU79yB-32" value="" style="verticalLabelPosition=bottom;verticalAlign=top;html=1;shape=mxgraph.basic.diag_round_rect;dx=13.78;whiteSpace=wrap;" parent="1" vertex="1">
          <mxGeometry x="391" y="-432" width="126.25" height="80" as="geometry" />
        </mxCell>
        <mxCell id="OrC8Zif0g1K16IDU79yB-31" value="" style="verticalLabelPosition=bottom;verticalAlign=top;html=1;shape=mxgraph.basic.diag_round_rect;dx=16.92;whiteSpace=wrap;" parent="1" vertex="1">
          <mxGeometry x="390" y="-537" width="122.5" height="70" as="geometry" />
        </mxCell>
        <mxCell id="OrC8Zif0g1K16IDU79yB-30" value="" style="verticalLabelPosition=bottom;verticalAlign=top;html=1;shape=mxgraph.basic.diag_round_rect;dx=15.85;whiteSpace=wrap;" parent="1" vertex="1">
          <mxGeometry x="390" y="-648" width="122.5" height="70" as="geometry" />
        </mxCell>
        <mxCell id="OrC8Zif0g1K16IDU79yB-29" value="" style="verticalLabelPosition=bottom;verticalAlign=top;html=1;shape=mxgraph.basic.diag_round_rect;dx=17.5;whiteSpace=wrap;" parent="1" vertex="1">
          <mxGeometry x="396.88" y="-757" width="122.5" height="70" as="geometry" />
        </mxCell>
        <mxCell id="OrC8Zif0g1K16IDU79yB-17" value="" style="strokeWidth=2;html=1;shape=mxgraph.flowchart.database;whiteSpace=wrap;" parent="1" vertex="1">
          <mxGeometry x="-41.96" y="-764" width="84" height="118" as="geometry" />
        </mxCell>
        <mxCell id="OrC8Zif0g1K16IDU79yB-16" value="" style="strokeWidth=2;html=1;shape=mxgraph.flowchart.database;whiteSpace=wrap;" parent="1" vertex="1">
          <mxGeometry x="-42" y="-593" width="92" height="123" as="geometry" />
        </mxCell>
        <mxCell id="FI-UV4CkvdApVfEaS67q-1" value="&lt;font style=&quot;font-size: 14px;&quot;&gt;Auth&lt;/font&gt;" style="rounded=1;whiteSpace=wrap;html=1;fillColor=#f8cecc;strokeColor=#b85450;arcSize=50;" parent="1" vertex="1">
          <mxGeometry x="-571.87" y="-160" width="113.75" height="40" as="geometry" />
        </mxCell>
        <mxCell id="FI-UV4CkvdApVfEaS67q-5" value="&lt;span style=&quot;font-size: 14px;&quot;&gt;Constructor-Test&lt;/span&gt;" style="rounded=1;whiteSpace=wrap;html=1;fillColor=#f8cecc;strokeColor=#b85450;arcSize=50;" parent="1" vertex="1">
          <mxGeometry x="-476.25" y="-553" width="100" height="40" as="geometry" />
        </mxCell>
        <mxCell id="FI-UV4CkvdApVfEaS67q-6" value="&lt;font style=&quot;font-size: 14px;&quot;&gt;Knowledge Base&lt;/font&gt;" style="rounded=1;whiteSpace=wrap;html=1;fillColor=#f8cecc;strokeColor=#b85450;arcSize=50;" parent="1" vertex="1">
          <mxGeometry x="-566.25" y="-660" width="110" height="50" as="geometry" />
        </mxCell>
        <mxCell id="FI-UV4CkvdApVfEaS67q-12" value="&lt;font style=&quot;font-size: 14px&quot;&gt;Object store&lt;/font&gt;" style="ellipse;shape=cloud;whiteSpace=wrap;html=1;fillColor=#1ba1e2;strokeColor=#006EAF;fontColor=#ffffff;" parent="1" vertex="1">
          <mxGeometry x="359.13" y="-311.5" width="190" height="83" as="geometry" />
        </mxCell>
        <mxCell id="BMWV7zW6cvg58yMyaaN7-4" value="" style="shape=hexagon;perimeter=hexagonPerimeter2;whiteSpace=wrap;html=1;fixedSize=1;direction=south;fillColor=#d5e8d4;strokeColor=#82b366;" parent="1" vertex="1">
          <mxGeometry x="-800" y="-940" width="90" height="880" as="geometry" />
        </mxCell>
        <mxCell id="BMWV7zW6cvg58yMyaaN7-13" value="&lt;font style=&quot;font-size: 14px;&quot;&gt;Test&lt;/font&gt;" style="rounded=1;whiteSpace=wrap;html=1;fillColor=#f8cecc;strokeColor=#b85450;arcSize=50;" parent="1" vertex="1">
          <mxGeometry x="-566.25" y="-440" width="102.5" height="40" as="geometry" />
        </mxCell>
        <mxCell id="BMWV7zW6cvg58yMyaaN7-24" value="&lt;span style=&quot;font-size: 14px;&quot;&gt;Test Generator&lt;/span&gt;" style="rounded=1;whiteSpace=wrap;html=1;fillColor=#f8cecc;strokeColor=#b85450;arcSize=50;" parent="1" vertex="1">
          <mxGeometry x="-210" y="-558" width="100" height="50" as="geometry" />
        </mxCell>
        <mxCell id="1llnXfgl0j8QHKlYY3n8-12" value="" style="endArrow=classic;html=1;rounded=0;exitX=0.859;exitY=0.025;exitDx=0;exitDy=0;entryX=0;entryY=0.75;entryDx=0;entryDy=0;exitPerimeter=0;" parent="1" source="BMWV7zW6cvg58yMyaaN7-13" target="BMWV7zW6cvg58yMyaaN7-24" edge="1">
          <mxGeometry width="50" height="50" relative="1" as="geometry">
            <mxPoint x="-510" y="-380" as="sourcePoint" />
            <mxPoint x="-460" y="-430" as="targetPoint" />
          </mxGeometry>
        </mxCell>
        <mxCell id="1llnXfgl0j8QHKlYY3n8-13" value="" style="endArrow=classic;html=1;rounded=0;exitX=1;exitY=0.5;exitDx=0;exitDy=0;entryX=0;entryY=0.5;entryDx=0;entryDy=0;" parent="1" source="FI-UV4CkvdApVfEaS67q-5" target="BMWV7zW6cvg58yMyaaN7-24" edge="1">
          <mxGeometry width="50" height="50" relative="1" as="geometry">
            <mxPoint x="-470" y="-480" as="sourcePoint" />
            <mxPoint x="-420" y="-530" as="targetPoint" />
          </mxGeometry>
        </mxCell>
        <mxCell id="1llnXfgl0j8QHKlYY3n8-18" value="" style="endArrow=classic;html=1;rounded=0;exitX=0.5;exitY=0;exitDx=0;exitDy=0;entryX=0.671;entryY=0.96;entryDx=0;entryDy=0;entryPerimeter=0;" parent="1" source="FI-UV4CkvdApVfEaS67q-5" target="FI-UV4CkvdApVfEaS67q-6" edge="1">
          <mxGeometry width="50" height="50" relative="1" as="geometry">
            <mxPoint x="-520" y="-584.5" as="sourcePoint" />
            <mxPoint x="-520" y="-640" as="targetPoint" />
          </mxGeometry>
        </mxCell>
        <mxCell id="o1ozROHoSzwvkaUlJVG--1" value="" style="endArrow=classic;html=1;rounded=0;entryX=0.5;entryY=1;entryDx=0;entryDy=0;exitX=0.5;exitY=0;exitDx=0;exitDy=0;" parent="1" source="BMWV7zW6cvg58yMyaaN7-13" target="FI-UV4CkvdApVfEaS67q-5" edge="1">
          <mxGeometry width="50" height="50" relative="1" as="geometry">
            <mxPoint x="-520" y="-400" as="sourcePoint" />
            <mxPoint x="-470" y="-450" as="targetPoint" />
          </mxGeometry>
        </mxCell>
        <mxCell id="dh4gxk5LR153SDQBrjIh-4" value="RabbitMQ" style="verticalAlign=top;align=left;spacingTop=8;spacingLeft=2;spacingRight=12;shape=cube;size=10;direction=south;fontStyle=4;html=1;whiteSpace=wrap;" parent="1" vertex="1">
          <mxGeometry x="120" y="-888.87" width="90" height="778.87" as="geometry" />
        </mxCell>
        <mxCell id="ou45pZKLrtrSA6lrewv_-1" value="&lt;font style=&quot;font-size: 14px;&quot;&gt;Statistic&lt;/font&gt;" style="rounded=1;whiteSpace=wrap;html=1;fillColor=#f8cecc;strokeColor=#b85450;arcSize=50;" parent="1" vertex="1">
          <mxGeometry x="-568.12" y="-290" width="110" height="40" as="geometry" />
        </mxCell>
        <mxCell id="ou45pZKLrtrSA6lrewv_-4" value="&lt;span style=&quot;font-size: 14px;&quot;&gt;GPT-Assistant&lt;/span&gt;" style="rounded=1;whiteSpace=wrap;html=1;fillColor=#f8cecc;strokeColor=#b85450;arcSize=50;" parent="1" vertex="1">
          <mxGeometry x="-568.12" y="-360" width="110" height="42.5" as="geometry" />
        </mxCell>
        <mxCell id="ou45pZKLrtrSA6lrewv_-6" value="&lt;span style=&quot;font-size: 14px;&quot;&gt;Messenger&lt;/span&gt;" style="rounded=1;whiteSpace=wrap;html=1;fillColor=#f8cecc;strokeColor=#b85450;arcSize=50;" parent="1" vertex="1">
          <mxGeometry x="-570" y="-222.5" width="110" height="40" as="geometry" />
        </mxCell>
        <mxCell id="RpE0h9w7CKkBOYFxdqrl-2" value="" style="endArrow=classic;html=1;rounded=0;exitX=1;exitY=0.75;exitDx=0;exitDy=0;" parent="1" source="FI-UV4CkvdApVfEaS67q-6" target="BMWV7zW6cvg58yMyaaN7-24" edge="1">
          <mxGeometry width="50" height="50" relative="1" as="geometry">
            <mxPoint x="-160" y="-620" as="sourcePoint" />
            <mxPoint x="-170" y="-550.5" as="targetPoint" />
          </mxGeometry>
        </mxCell>
        <mxCell id="RpE0h9w7CKkBOYFxdqrl-10" value="&lt;span style=&quot;font-size: 14px;&quot;&gt;Education&lt;/span&gt;" style="rounded=1;whiteSpace=wrap;html=1;fillColor=#ffe6cc;strokeColor=#d79b00;arcSize=50;" parent="1" vertex="1">
          <mxGeometry x="-566.25" y="-860" width="110" height="50" as="geometry" />
        </mxCell>
        <mxCell id="RpE0h9w7CKkBOYFxdqrl-11" value="&lt;font style=&quot;font-size: 14px;&quot;&gt;Constructor-Course&lt;/font&gt;" style="rounded=1;whiteSpace=wrap;html=1;fillColor=#ffe6cc;strokeColor=#d79b00;arcSize=50;" parent="1" vertex="1">
          <mxGeometry x="-420" y="-770" width="110" height="50" as="geometry" />
        </mxCell>
        <mxCell id="RpE0h9w7CKkBOYFxdqrl-12" value="&lt;font style=&quot;font-size: 14px;&quot;&gt;Course&lt;/font&gt;" style="rounded=1;whiteSpace=wrap;html=1;fillColor=#ffe6cc;strokeColor=#d79b00;arcSize=50;" parent="1" vertex="1">
          <mxGeometry x="-220" y="-770" width="110" height="50" as="geometry" />
        </mxCell>
        <mxCell id="RpE0h9w7CKkBOYFxdqrl-13" value="" style="endArrow=classic;html=1;rounded=0;exitX=0.069;exitY=0.936;exitDx=0;exitDy=0;exitPerimeter=0;entryX=0.83;entryY=0.024;entryDx=0;entryDy=0;entryPerimeter=0;" parent="1" source="RpE0h9w7CKkBOYFxdqrl-11" target="FI-UV4CkvdApVfEaS67q-6" edge="1">
          <mxGeometry width="50" height="50" relative="1" as="geometry">
            <mxPoint x="-320" y="-620" as="sourcePoint" />
            <mxPoint x="-270" y="-670" as="targetPoint" />
          </mxGeometry>
        </mxCell>
        <mxCell id="RpE0h9w7CKkBOYFxdqrl-14" value="" style="endArrow=classic;html=1;rounded=0;exitX=0.75;exitY=1;exitDx=0;exitDy=0;entryX=0.091;entryY=0.152;entryDx=0;entryDy=0;entryPerimeter=0;" parent="1" source="RpE0h9w7CKkBOYFxdqrl-10" target="RpE0h9w7CKkBOYFxdqrl-11" edge="1">
          <mxGeometry width="50" height="50" relative="1" as="geometry">
            <mxPoint x="-410" y="-800" as="sourcePoint" />
            <mxPoint x="-360" y="-850" as="targetPoint" />
          </mxGeometry>
        </mxCell>
        <mxCell id="RpE0h9w7CKkBOYFxdqrl-15" value="" style="endArrow=classic;html=1;rounded=0;exitX=1;exitY=0.5;exitDx=0;exitDy=0;entryX=0.25;entryY=0;entryDx=0;entryDy=0;" parent="1" source="RpE0h9w7CKkBOYFxdqrl-10" target="RpE0h9w7CKkBOYFxdqrl-12" edge="1">
          <mxGeometry width="50" height="50" relative="1" as="geometry">
            <mxPoint x="-250" y="-790" as="sourcePoint" />
            <mxPoint x="-200" y="-840" as="targetPoint" />
          </mxGeometry>
        </mxCell>
        <mxCell id="RpE0h9w7CKkBOYFxdqrl-16" value="" style="endArrow=classic;html=1;rounded=0;exitX=1;exitY=0.5;exitDx=0;exitDy=0;entryX=0;entryY=0.5;entryDx=0;entryDy=0;" parent="1" source="RpE0h9w7CKkBOYFxdqrl-11" target="RpE0h9w7CKkBOYFxdqrl-12" edge="1">
          <mxGeometry width="50" height="50" relative="1" as="geometry">
            <mxPoint x="-110" y="-630" as="sourcePoint" />
            <mxPoint x="-60" y="-680" as="targetPoint" />
          </mxGeometry>
        </mxCell>
        <mxCell id="RpE0h9w7CKkBOYFxdqrl-17" value="" style="endArrow=classic;html=1;rounded=0;exitX=1;exitY=0.25;exitDx=0;exitDy=0;entryX=0.133;entryY=0.928;entryDx=0;entryDy=0;entryPerimeter=0;" parent="1" source="FI-UV4CkvdApVfEaS67q-6" target="RpE0h9w7CKkBOYFxdqrl-12" edge="1">
          <mxGeometry width="50" height="50" relative="1" as="geometry">
            <mxPoint x="-240" y="-610" as="sourcePoint" />
            <mxPoint x="-190" y="-660" as="targetPoint" />
          </mxGeometry>
        </mxCell>
        <mxCell id="OrC8Zif0g1K16IDU79yB-2" value="" style="endArrow=classic;html=1;rounded=0;entryX=0;entryY=0.5;entryDx=0;entryDy=0;exitX=0.12;exitY=-0.042;exitDx=0;exitDy=0;exitPerimeter=0;" parent="1" source="BMWV7zW6cvg58yMyaaN7-4" target="RpE0h9w7CKkBOYFxdqrl-10" edge="1">
          <mxGeometry width="50" height="50" relative="1" as="geometry">
            <mxPoint x="-690" y="-790" as="sourcePoint" />
            <mxPoint x="-640" y="-840" as="targetPoint" />
          </mxGeometry>
        </mxCell>
        <mxCell id="OrC8Zif0g1K16IDU79yB-3" value="" style="endArrow=classic;html=1;rounded=0;entryX=0;entryY=0.5;entryDx=0;entryDy=0;exitX=0.221;exitY=-0.007;exitDx=0;exitDy=0;exitPerimeter=0;" parent="1" source="BMWV7zW6cvg58yMyaaN7-4" target="RpE0h9w7CKkBOYFxdqrl-11" edge="1">
          <mxGeometry width="50" height="50" relative="1" as="geometry">
            <mxPoint x="-660" y="-690" as="sourcePoint" />
            <mxPoint x="-610" y="-740" as="targetPoint" />
          </mxGeometry>
        </mxCell>
        <mxCell id="OrC8Zif0g1K16IDU79yB-4" value="" style="endArrow=classic;html=1;rounded=0;entryX=0;entryY=0.5;entryDx=0;entryDy=0;exitX=0.345;exitY=-0.007;exitDx=0;exitDy=0;exitPerimeter=0;" parent="1" source="BMWV7zW6cvg58yMyaaN7-4" target="FI-UV4CkvdApVfEaS67q-6" edge="1">
          <mxGeometry width="50" height="50" relative="1" as="geometry">
            <mxPoint x="-680" y="-620" as="sourcePoint" />
            <mxPoint x="-630" y="-670" as="targetPoint" />
          </mxGeometry>
        </mxCell>
        <mxCell id="OrC8Zif0g1K16IDU79yB-5" value="" style="endArrow=classic;html=1;rounded=0;entryX=0;entryY=0.5;entryDx=0;entryDy=0;exitX=0.462;exitY=-0.007;exitDx=0;exitDy=0;exitPerimeter=0;" parent="1" source="BMWV7zW6cvg58yMyaaN7-4" target="FI-UV4CkvdApVfEaS67q-5" edge="1">
          <mxGeometry width="50" height="50" relative="1" as="geometry">
            <mxPoint x="-610" y="-500" as="sourcePoint" />
            <mxPoint x="-560" y="-550" as="targetPoint" />
          </mxGeometry>
        </mxCell>
        <mxCell id="OrC8Zif0g1K16IDU79yB-6" value="" style="endArrow=classic;html=1;rounded=0;entryX=0;entryY=0.5;entryDx=0;entryDy=0;" parent="1" target="BMWV7zW6cvg58yMyaaN7-13" edge="1">
          <mxGeometry width="50" height="50" relative="1" as="geometry">
            <mxPoint x="-711" y="-420" as="sourcePoint" />
            <mxPoint x="-620" y="-460" as="targetPoint" />
          </mxGeometry>
        </mxCell>
        <mxCell id="OrC8Zif0g1K16IDU79yB-7" value="" style="endArrow=classic;html=1;rounded=0;entryX=0;entryY=0.5;entryDx=0;entryDy=0;exitX=0.684;exitY=-0.033;exitDx=0;exitDy=0;exitPerimeter=0;" parent="1" source="BMWV7zW6cvg58yMyaaN7-4" target="ou45pZKLrtrSA6lrewv_-4" edge="1">
          <mxGeometry width="50" height="50" relative="1" as="geometry">
            <mxPoint x="-660" y="-320" as="sourcePoint" />
            <mxPoint x="-610" y="-370" as="targetPoint" />
          </mxGeometry>
        </mxCell>
        <mxCell id="OrC8Zif0g1K16IDU79yB-8" value="" style="endArrow=classic;html=1;rounded=0;entryX=0;entryY=0.5;entryDx=0;entryDy=0;exitX=0.763;exitY=-0.016;exitDx=0;exitDy=0;exitPerimeter=0;" parent="1" source="BMWV7zW6cvg58yMyaaN7-4" target="ou45pZKLrtrSA6lrewv_-1" edge="1">
          <mxGeometry width="50" height="50" relative="1" as="geometry">
            <mxPoint x="-670" y="-250" as="sourcePoint" />
            <mxPoint x="-620" y="-300" as="targetPoint" />
          </mxGeometry>
        </mxCell>
        <mxCell id="OrC8Zif0g1K16IDU79yB-9" value="" style="endArrow=classic;html=1;rounded=0;entryX=0;entryY=0.5;entryDx=0;entryDy=0;exitX=0.911;exitY=0.011;exitDx=0;exitDy=0;exitPerimeter=0;" parent="1" source="BMWV7zW6cvg58yMyaaN7-4" target="FI-UV4CkvdApVfEaS67q-1" edge="1">
          <mxGeometry width="50" height="50" relative="1" as="geometry">
            <mxPoint x="-660" y="-130" as="sourcePoint" />
            <mxPoint x="-610" y="-180" as="targetPoint" />
          </mxGeometry>
        </mxCell>
        <mxCell id="OrC8Zif0g1K16IDU79yB-10" value="" style="endArrow=classic;html=1;rounded=0;entryX=0;entryY=0.5;entryDx=0;entryDy=0;exitX=0.839;exitY=0.002;exitDx=0;exitDy=0;exitPerimeter=0;" parent="1" source="BMWV7zW6cvg58yMyaaN7-4" target="ou45pZKLrtrSA6lrewv_-6" edge="1">
          <mxGeometry width="50" height="50" relative="1" as="geometry">
            <mxPoint x="-650" y="-190" as="sourcePoint" />
            <mxPoint x="-600" y="-240" as="targetPoint" />
          </mxGeometry>
        </mxCell>
        <mxCell id="OrC8Zif0g1K16IDU79yB-12" value="" style="shape=image;verticalLabelPosition=bottom;labelBackgroundColor=default;verticalAlign=top;aspect=fixed;imageAspect=0;image=data:image/png,iVBORw0KGgoAAAANSUhEUgAAADAAAAAwCAYAAABXAvmHAAAACXBIWXMAAAsTAAALEwEAmpwYAAAHIElEQVR4nO1ZaWwVVRSuT5RFUFQgAiomCiIgxogKxi0oLjEGFLfEGONCFGOIawqUIjspm0ILGEpNsKCIsqXs0Pa1pTsttKU7pS20QDe60b19n/nu3Pt49M3Mm5aYPhNOcn9M5sy95zv37OPjc4Nu0H9HACYBWAcgDUAtAAeASgDpAEIBzAAwxOJeQwFMA7AcQBiADLlnC4ALAFIBBAOYDqDv9Qo+DMAeWKN2AHYAMwGMAPAZgIMA8gA0ykXQXaFKAIsA3NYd4UcBKOIutc1tCLAXYVJQMu78KQq950Zg8MJoPB2YjJm7crA/uxLNbR1dlA2ouNKKd7dmiD37z7NjxLJYPL8xBUvDC5FaWufKWgzgxa4I30deLY4X1WDo4hjYfMNN110LopBVdsV54pG8Knz452mMXhmPAf52IeSjaxKEwNtSLwqlkFrbHZh/pAA3z3bfk2CSztO6NFYAn1oFsIJfnLpQLw73JDzX5qRSp1anbkmzBHhNdLEAQNqVUY6+fpFufLfMicDyCGEIJF7z+56E70+rcTiACeuSLAlPTZOoVavfqPXM+mRcrGtxgqDAenzf78tXIJoBjDYDQOdD5JnLlgS4Y74dl+o1AT7YdrpLwqv1UECcE8SyiEJDvtCUiwpEkBmALeT4cleOpcN9D5wROx7Lr+qW8Go9FZiElvYOdDgcwvb1eCYGJSsA8WYATpKDzFYOLqhidASmBJ+8LgA233D4HSqA8r1es91NadDCaAWgwgyAcHtGDU8Hjl+TIHYrv9Kqe2BXV1+/SJTW0sSBt35Pd3vfzy9SAag0AyB2YKz3dOAP0rFom9crvE2uH/dre/6dXub27r6lxxWAQjMAIkBb0WhYVoXYbWdGOfZlVSC/shHnapqEP0wPTdeN7Xqr1+wIfLIjS+QO3iappqnN7XsmTkmJZgCqycFM6+ngjEtXE5ceLQk3jihq9ZkbiaN5VW7f0qE7837+T7Z6HWIGIJEcz2444fFwlU1TSurw0fZMPLwyXpQDjNmMJswlj6yKt2SGF+pahIBPrksSz2X1LW68G+JKFIBvzQBsJQev1BOAJln/MBe43grNoL6FtR2w8OhZ0z3ii7VSobG1A3XN7dgYrwmZW9Hgxptd3qAATDAD4E8Opm9PAKgl0j0utdIXO7NR2dCKEyVaMbY3s8J0j7MyDJfUNqO4usl5I6zBXPkeDIhzhlAANjMAb5KLTukJQF6FppFRK+Lc3rFyNdKk60o4p93Ay8Gp4pnhUw/4rL25CsAfhsJLAMNFoG1o9RhFzlRq2mMp0Pnd/cu0kHe5sc10j6DY84Jv0THN1F7dLPIoDudem9ldqtKppgAkiEvkHKmjWT0TGrIoWje6kNo6HKZ7vLSJDRiEKVFhT6zVnPhkab2TZ+zqBNcG51YrAHaS++O/Mi05MYXt/G7g/CjxjpHKkymeluGYvcK9MlkxEKj3LLslrfcovAQwy0qGZZg00jDDp9KsJwCzpH0zgqmbU3mAimBSk334GKsAxqvYbOQHzJ6qetRrelSPcCCn0iOAfn6RIoOTvt6Te43vzDmoVbuMK5aElwBsvEV+9djPiR5juF4HtiOtTMs4YXkeAdh8wzFDZlllluH5l0V+UX4GYLJlABJEsGt00FsUjsRQ6NpJ3e5vF4mMJvbA8lhLAG6dE3FNacIbZHMjyd4l4SWAV/gls5/RoTQdJiBSYOx5ZwGotBl9ttqS8Da5Hv8l0TndoF8wO0vbn9gdAL1k1hMbGx3Kmkk15ozd7KZiCkU9KOqjrgCw+Ya7al1RPS2KJbQs9bMsmxOADdwhJKnU9FD6gB7ZC6rxTqh7Y2K0hi+JEc4r1K7pxIhYvva2AmAM9+K1Mj7rHcootf2UyHuGxMhiBcDScE377AuYHJmV39uagTd+OyUqXWb3hlatSAQwyOot7Cb32uPndA/lxI7EfBBbVCP6Wrajdy+Ico5COLWwAiBeRrXJm7S6yHWxR3cZnEVZEl4CGM2pGAV8rlOPwLEi6buwPCGwnlAqLBrNe1xXmQyZbB3ZUI1bnSACAgtL5htJnBgOtwxAgvBVBd60LWliOsAEozb9NaFEgFN9AW+AWmSrqchKj91hbvh04FXdmljLxBZisLGlqa4VAI6r8rfJ6JMpTZjDtsFdFrwTiJvkfwDWCDRGVl1TAIzjpIzjHDlCJ7GbSZHNUaNRwWcEwKcnqXO3JMHoDm69EkBnkrclCrb/NYABFsb0Di8FUGTUdrquoYtjlAPX+3gTyf9meC3EfPj7eghjgKBkH28iAAGUihnbDECgbO4Z6328iQC8QKnYcRnlgpEr4lSNQy8Y6+NtBECMGuYdLnATftiSGGdTbzrz7Eni3Ir/kVkq+B8uED/4KPhXu3Ocv6eg/VgZ6OOtBOAbaSJ6dMhyeewF/sB42SSbkgMA3maZ0tOy9Tj9C1LZ57OxUqMrAAAAAElFTkSuQmCC;" parent="1" vertex="1">
          <mxGeometry x="-29" y="-542.13" width="58" height="58" as="geometry" />
        </mxCell>
        <mxCell id="OrC8Zif0g1K16IDU79yB-14" value="" style="shape=image;verticalLabelPosition=bottom;labelBackgroundColor=default;verticalAlign=top;aspect=fixed;imageAspect=0;image=data:image/png,iVBORw0KGgoAAAANSUhEUgAAADAAAAAwCAYAAABXAvmHAAAACXBIWXMAAAsTAAALEwEAmpwYAAAD1klEQVR4nNXaW0ySUQAH8LPWQw+t9dDqqYfW1kPvra332rRVptXEputesqyMxD689AlCUoKFFWlc4kPQcFqISAr0hYSQEnxFbd2Wq9bsstZL6x6nHZctiMtZq+/y3/7P/n8I7HAAgP+YrjhVTTHUQiDUKAPkVAutHgRCTHtEM1DqKIKlNlHSctOyDAglx+CxWdrQ8fD0eEcRFNlF8LBL8tJMm+cAIeRkUBmfGY9acakCFhgLIeGRPUY4wOfoIlrn7+NRd/RunwagkiMkA/gaS8wgLustThmPuqtv1y8AamugtRvwLd2J7sVi186v6eNR9/XvTQGsM6+H+nDnbsCntATl9zKNRxVfFqcAUMt7Kr5cCF9YBPgQa9y8dmtvScbxqPud+/8A/Hw9xAAf0uCTvs42HvWgqyojAD2VTBOm1ZyO77pt2pBrPGr14KGMAFSpu/YZpwB1UHEnH0Dirs4KKDSuhYaIYQ0n4+137Iu294uS+QA1Q5KsgAL0WvDKo5wAOqNnW/ONR5V6anICSqhNSVvUtoB1gHpUcRcHQAzX5gQUGAuh7oaujXVAlXvPZxyADANQ56l7xOr4noR1Bc541PoRWV5AqU30ndWDniF6rhkX0OCtzwsoMBbCzkiniDXA6bBmEBdA+hqwAJqAxs4aQB1U3MYFNPkasQDNPmWINYCcrn+KC5D7SSwAMUQ84c355/cqruEBJK6aKdYA9T7pG1xAM92EBTg8IHnNGqDBX/sKF6Ck5fwDKAPkg38NIDyyx6wBTo2pA7iA47QCC9DklU/w7iCHqr6uxAJoR7UW1gB2hlr5rwEdkY5ywGYOuSs/4QBOBFR5x2+0FCcddx1zWQW0jZ0YxfoPYACkbukLwHa6E9SqTBdZ6W2hm/MCTgV1OsBFGv3EVP7DXO6z0OauLd+tEes8TgCWmKlM5NiYE1A3TOQEKP0qGnAZVYB8mAsgHTqS/dG3bkmaxk2LOQU4GGrJ3oFt37IBDjgzX2yx/hkgVwy3zqsyjUdPr52O1NvpmR5wHnxL0/RswJecDKom0gG7r5TDyr7KP8aX2cq+GWPG5YBPQY8mmfaudMRTBetcR1PGb7hYBPVhvRjwMX0MtZAYkbybAci9BGzzqFIudNtDZ0nA59ju2xY0+mo/IMAZfwu09rdO34EWUyXQGjIPASHEPGmecyakfU5d1UK7VQn1w5pk37hNBoQWl1P/EQHGQs4eIMQE6N4oAsRiPm6/yPjbRMZcJgRgmJAwfy8xcdNDIsDkJC2Mb+nTc2vcuwMB4nF6PhBiGObaysGBjveJhH/p//ojPwDlwkaVj/IBFQAAAABJRU5ErkJggg==;" parent="1" vertex="1">
          <mxGeometry x="-26.46" y="-713" width="53" height="53" as="geometry" />
        </mxCell>
        <mxCell id="OrC8Zif0g1K16IDU79yB-18" value="" style="strokeWidth=2;html=1;shape=mxgraph.flowchart.database;whiteSpace=wrap;" parent="1" vertex="1">
          <mxGeometry x="-50" y="-275.63" width="110" height="97" as="geometry" />
        </mxCell>
        <mxCell id="OrC8Zif0g1K16IDU79yB-20" value="" style="shape=image;verticalLabelPosition=bottom;labelBackgroundColor=default;verticalAlign=top;aspect=fixed;imageAspect=0;image=data:image/png,iVBORw0KGgoAAAANSUhEUgAAAKwAAABKCAYAAAAmLL9HAAAAAXNSR0IArs4c6QAAAARnQU1BAACxjwv8YQUAAAAJcEhZcwAAEnQAABJ0Ad5mH3gAAAiISURBVHhe7ZqLbxRFHMf9W4RIQEMEJUGBQAzxVSpPjTyF1IhYQzCIBFJBiEgIGmzAWENJVCQEBUQFIUoxYNEqQsNDC9jKI1AkSlGJENRkvG+5X5mb+83c7OP2brnfJ/mGdm9eu/PZ2dkrtylBSBEirJAqRFghVYiwQqoQYYVUIcIKqUKEFVKFCCukChFWSBUlE7brj2vqi+Zf1GsN36j2M5ezRwXBTUmEhajzVuzJCY5BYkFwkaiwEBIrqikrBZ9BXEGwkYiwEHXT522spFwg7oGjndnagnCTogvLPf5907DxkGwThByKJixepDgJg0a2CYJO7MJiRcTKyMkXJSKuAGITFqJGefz7BuLK12CVSyzChhV11Zz3VGPNarW0bhv7uSt4iZP9beURSVisdFjxOKEKZcej81V771Hd2TdsVre8XDlXZJtQeYQSNso+ddMTy3pENQOJw6y2SYr777mLPRGSJ5CwUfapWEFbB0xiRTUDqcOKW6xtwtWWI+r85AU548QxIVkCCfv6uuCrKsTDI1+faJ9AbuxvuTZdmb3kM7Wn+afsiOMBqyk3RhE2eQIJ++lXv6r1n3Sol9/8mpXFjL5PDRvI7rPa1i7erqpnvKV6D35ebdnekh1xPFyq38COTYRNnsDCUtZ+dNwqLlZGboKjxLW/JVEpcQt7cf4qdkwibPKEFpaCbQKJi31qmMd/kOhfg82Yt0n1f+ClHFlF2NJS7JfSyMIi2Cbsqs59IfGN74uYnh0DpqjqhxbmiUoRYZPHvEanR9RkP4mXWIRFvh85O2fAhaJ/94rHfVBxhwx6lpUVEWGThdvjl72wR6rm5g2aC8Tk/kgQdDshwpYP3LUpe2EPewiL71dNUc1A3B8HTWXr6xFhywfu2qRa2CNVLwT+Q8DHc99h26KIsOUDd21SLWzz8q2qcfMJtai+mZXTzOiaBtV36By2LUpcwuJtFnsw/BULFxlyIn9t2Z0tEVxY1EWbiN4O+kJb6Ieif25CY9PHh+BntBPkhkFZ25i49l3jIlAG4a4NQv3piUoiwu5btqWn3JoPjrKSIpNmr1cDH7z59s+1RYkqLCYKk8O1TcHnmGhfYdEmJlsvgzYAyurHKdwkomyhsVF8JDDHhN+B7bwoNHYOs03fRCVxYZEPd51VK9cd7BH1mYVb1bCxy/LE49qiRBHWJg8XTJpNHlNYTgDUhcjmcYouHCe8T6gPDrRvlkcfvv1wbXNt+gRtRaUkwlLe39ahRk1fzUqHcG1RwgobRNZCMYXlyiAuOXRhw4qAoA8O7mbjjrmijxGEuakQs50wlFRY5N6H61jpEK4tSlhhw15sLr7CuqJPIlYyU1qMF8fQF/c5BRKa4wFB5eRiroxhrqHthgpKRQnrekFAIAOCcvRyxJWjBBUWk4Z20T7qUl86upScgABlzLYRtG3iOgd8hr5oLK6y+ljwsx6uPNqiz80tRRQqSljbyoDj3EV1rWgIJkOHK0MxxXSBfgtNMjcubhWzSYjjJuiTK4uY56rDlefaj4NEhG2pXcPWQWzCjrvnabYtShhhuXYQ12RgEm2i+woLucKC/tEPAunRFmJ7wTOxCWu7gWzn6rrhuPKpFvbnXlXq2IhZavfa5rx6nLBv3/Uk246eoMLaVg/uMWpiW2V9hXXdEBwYK/q0yWNLEGHRB4ftXHHcBlc+5cJm/u1VrU73Hq1OPPKianr3u556urCz7p7O1ucSVFisEFw7PsJCOK6ur7BBsAnjG5OgwtquU4UJW6Xabx+lTvV6THXeMV519cusoE+tVDs3H1P3Vy/qfvxv7TuBrWtLUGFt0rkmgkhK2KArKhdTRJuwNkTYTG6ssJmTyKywnX3Gq8t3TlT/DJihrg+eqQ4Nce9VbYlLWO5FxcQ2iT7C+k4ctyeloA0Ig2As6Bc/c2VFWA1OVD0/TFuu2gbnP9ZzVtiMsF39Jqrrmce/yqysZ/uMySvvk7j2sD4XNspLl+/E2cSCQBw2sURYDU5SM3jMQ1x98PoeVl9hkxQW2CbPtY+1rcxInMJydV3jsq3I5SIsYo4lDmIXltLUsLdnteX2sDdW2JpEhS302MVkQUJcaNdjlxKXsLbV3yaJrTxSCmFtfZh14hC4aMJS8EeDNvyHbG0P21WiFdY10WFS7BUWdc1Jx+82QZByEpaCLRWViUogYX+/fF3t/vY3Vkxn9lxQrePqVEf/iV57WHxjUIw/HADbhISJKQdXBhPlg+sbgkJC6CmFsK4nl5moBBKWOHvhaihx976xU3UMnWndw+7P/AxRSTz9RM2EFRYTiovPtWmLbUJMuDI+30KAoKu/TXATTljXmGzCmk8THYzd56byvXldhBKWaG37M5S4B+o2qisDc4V9pf+UPPHME9YTVljCV1qU42TiVhyzDOKaaBPf1R99c2W5vjiRXGPi2vW56TCmQtL63rwuIgkLsE3Y39rFilkoZyYsUU3Da63ycSdNiSosoNUWF1K/2PiZRKVyKIPguG3CqQxWZITqB0Efk36+NCbqG//6jAnj8ClH6O2iLur4grqow4mL9gr17UNkYYmw+9thY5ay0iHmSeuJQ1iTMIIVE4yn3MYUBBp/nOcQm7DE8VNXAolbTsIK5U/swoK/r/3nvb8VYYUgFEVYwmd/K8IKQSiqsITrazCbsCvWbLNu4F3C1q/dke1VuBVJRFiC2yaYwtYuaFQn2s9na9x8ay0k7OTn6tW5zkvZWsKtSqLCAtrfkrDDx94QtnrqcvXl3sPZUvmY4pKwI8YuVi0HT2ZLCbc6iQtL0NdgIx9/VTVuaMoeLQzEPXnftG5hZa9aeZRMWEEIgwgrpAoRVkgVIqyQKkRYIVWIsEKqEGGFVCHCCqlChBVShQgrpAoRVkgVIqyQKkRYIVWIsEKqEGGFVCHCCilCqf8BdiPBmEs/xBIAAAAASUVORK5CYII=;" parent="1" vertex="1">
          <mxGeometry x="-44.46000000000001" y="-240" width="96.46" height="41.5" as="geometry" />
        </mxCell>
        <mxCell id="OrC8Zif0g1K16IDU79yB-21" value="" style="shape=image;verticalLabelPosition=bottom;labelBackgroundColor=default;verticalAlign=top;aspect=fixed;imageAspect=0;image=data:image/png,iVBORw0KGgoAAAANSUhEUgAAADUAAAA4CAYAAABdeLCuAAAAAXNSR0IArs4c6QAAAARnQU1BAACxjwv8YQUAAAAJcEhZcwAAEnQAABJ0Ad5mH3gAAAFoSURBVGhD7ZnBbcJAEEUpJaVQSk70kBMVUENSQxrgRBE50QA9TOZLjERW395RtMKzyf/Su3g9o3nYgrXZ2R+MpGaJpGaJpGZJXup2Nfs8mn28/gTHsNbL5Z3Xf53vJ4xLXuq0Nzv46QwMtxYMzuqCwWLeMRk2TADhteAKsboAV3FgvGMybJhAUgRJ9eMdk2HDBJIiSKof75gMGyaQFEFS/XjHZNgwgaQIJaXeXu4nLaQnhfWB8Y7JsGEeWRoMjyWQZjUB1gfu1L1jMmyYrcGHQW5dX0mGNa0AufX9aDKsYQUk1YY1rICk2rCGFSgvhQGxOwnYOS1lpTAYe3cY7xpZTVBWam3vBzFWE5SV6m2RMDirA5JqwxqO4l9KsZqgrNTaQya+RFhNUFYKYDgIPNL7OgelpX6LpNqwhhWQVBvWsAKSapN9FHg25E90P5oMdsvt78jWLOxE8lITRVKzRFKzRFKzRFJzxOwbX0VkKpQRvM8AAAAASUVORK5CYII=;" parent="1" vertex="1">
          <mxGeometry x="138.5" y="-527" width="53" height="56" as="geometry" />
        </mxCell>
        <mxCell id="OrC8Zif0g1K16IDU79yB-22" value="" style="shape=image;verticalLabelPosition=bottom;labelBackgroundColor=default;verticalAlign=top;aspect=fixed;imageAspect=0;image=data:image/png,iVBORw0KGgoAAAANSUhEUgAAADAAAAAwCAYAAABXAvmHAAAACXBIWXMAAAsTAAALEwEAmpwYAAADO0lEQVR4nOWaXUgUURiGpx9CiC6jC2c8Z02KtGLG1XOsJCEqAqMsEG+CvCnoJoJEL7qY/VHJErZzNsm0KKiIim4qElO6jciyblZ3N4YsSQuSwrTwZ0+Mpq3jrO3f7M6sH3w3u7DnfZj33XPmm+E4g0q4YN8vuAqHAUFdud6SbZxVKseNbEKD/QUvi0xtSDEDFE0Ciq/mkdL1nGlLLssSGgtv8U5xek78HMB8EzQCCa7Ll/PXcGaqnPP22myX9CtcuC7A3wYE+21eVJlu3fM+1xO+FMA/EJSefGh9Hi8ATHk+Ivg8EQCYqnws5fOkAFCD8hGNz5MJAJOVj1h8bgQAjDsfcfjcKAAYaz7i9bnhADTKfEQlyiGy3bRiqP6Jx+/pbPVXXT+hAJd9Ks594Auk+DQgJQcAwQ5I0Xg0IAkBnLpbG1QUhYW3L9A3JjbvGYkFABA8oQ0ppLjKWACHyHz+vnEtgNr9wf7fmxp3/YwB4JVO/lZDgscMBJBCeuLn+rWvdwS67JNRAVDcqacBEjyUNgC1O3q6PwoOKWRZAEVRmLerPSBYGUBRFHbm3rmAZQCC74PTep/va6kctATAkWvVA3r/ToFgcApQ9Mj0AAVNZT/szXu/6V2JzU071wGK3pkegJdFdrjt+AftdzOiLu8AgKJh0wPwssjqHroDWgC1cr3FReGblGkBeIfIWrtvzh83wn9fPYhBgkPmBpBFJjil0LOe54NaALVmD20mB+BlkdncxRO9vrffFy3CuBWQotumB+BlkRU0lY7q3YSAG2VZgGKn6QHUBhS16y4mcystATCzKEE1ERe1BADF04CiCisDMPV20UZLkIUBsNqfN7YUCWkEEGduHbUAeQ044iRjsQD0ZsPF7Wt1BdyvXAUIGjUOQBZZzQN5wVHh8cuOARUseoDZqZt6yOM0BSiu/p/4hAF4h8QOtR0b8HS0Bk7eORsUnNKSA7CIQggeUveCHIrKAcVHIcFX1ElcQgDqYIs3/WCr+CCXsaPFzBju6o3X3dKntIzXLxVt5ZJV8ebDGJ8vx0dMmfGQL458pNTnRuQj9T5fjq8aZMbLHtzCyq5H5YJb+goJego8eItRC/0BJ9sb2y/if5IAAAAASUVORK5CYII=;" parent="1" vertex="1">
          <mxGeometry x="-782" y="-527" width="54" height="54" as="geometry" />
        </mxCell>
        <mxCell id="OrC8Zif0g1K16IDU79yB-23" value="" style="shape=image;verticalLabelPosition=bottom;labelBackgroundColor=default;verticalAlign=top;aspect=fixed;imageAspect=0;image=data:image/png,iVBORw0KGgoAAAANSUhEUgAAACgAAAAoCAYAAACM/rhtAAAACXBIWXMAAAsTAAALEwEAmpwYAAAJ/klEQVR4nN1YaVBU2RVus08qe1JZqpLKJJVtsieV/UespCrJZOz99etWM45xzJgZEx21ovT2tm6XcUDUKIq444aMowJvb7YGd0UQVAQRUFl0XGiaXmi2mzptvdevsWE0mvyYW3VLhPPuPet3vnN1uvfqMmbxPzG6uNftvgBr90ktVkIImzx8wujmEPxrIYSQjZFacUbiTB5umd7J/1ynQ1P+p0rpqdLPWQiBxijx1owV5WHP/sb45qoudLChDwntg6ji5ggK9iIkdSbQ0SsRVFR/HxUEuxFZdCkxa1Vlv5UU+6ykkP2Ch/3qU1UMX1z8jIUQV1oJMeoqvBA71NSPam6hx96gNHPw4qCVFGMYKW6d5mQ//cTK6d2lP8VIsXvJ9roo1xZ/6FL5+hDaV3cPba3tQeukDpTNtaH1gU5UUNOd/D14dfw34GFif+MgRor39W7uz/+1ciZSmGUjpejWYz1j2gvKrw+jtcK10dnZ1f0mDz9kZwKNDibAYaS0xeTh38QpaYfDH+BwRm6CfHx5TU3ojZLWYVBMe86BunvI7pOjmFcgHls5i0dc4PAHokebB9QDq3vGUA5/bQSjxJiNlg4ZnJxeT5V+dLJzplJVH9G7+Kk4JRVaSCFGHbw4GLg+pJ7Jt8XR7DerIzZayH5k5cwedgZYxrbG1IMgvH9bWxvBGanW4Cn52mNbrNPpLG7hSxglFjr8crz4Ql8qTToT6KU3qiIWQlj4rodMyyr7EUYKkcOXwmnJbffLUYuHf/NpQIXBw8+GQjlw/r56R1lrFNkYKWp0cz+b8MPnF/AftpLi9fzqrjGt5+w+OWYkuFczffPCv9gvGt3sQpyR3rb7AmcdPrnexkgHDW7WRFHU+wwu7g8GN5uV3C5umdErfBu+0zv5P+I+OVp2NRWlLcGuMZyWruJ48fszKmjxCsTC/DMR5YOqnlE0JycYt5Di6vGyJurIpzBK2mslhPjSXfXRzVU30Z6zd5KVu7H8BpqbWxPGSKHd4hXiK96+gmAv2XFuFGfkCuUMjOQXz8kJRoK9Y6qSr6yrDZtc3MyHlMOzAp+0kEKktCWqCq843JzAaKkWPKGVNbr471op4S5xoCmeCUaUvUa4NvLiqsoh5f8A2tB50u5l5CaAKEWm8PQdCHXLQwqaCd65dOf5qDYnLF5h0OQRv6KVMzjFb1hJ4R6Eo0ajTEXXCAIAh+4BSa/8fr3cqf68VmxHVkLMTzeW/d3MFRUR6EAgA960+wIRs5d9Lk1BGy3dKGpIVRYAqZngt2plplJVH7DRUvN6uWNUCz0rj7QkrKQYxxm5w+GXr1gIPu7aeyEKKaIN3/IjzSNmD+t9KHq01KXtTtBCjV52cVrIpi+XBxQr4FKMFAdNWcKz2oMsXjHrtbwTqlywF6FFBWeiNlqq0Xoap8TP2GixatXRloTWy87d9RGji3tlvIIYJebnsG2q0RBynJElVUDvZuc79zSo4YUw4Yx0Lc1KqvhDFlIIAeQocrlC+whOiefnzTv3wYdSxsl9C0KlVfCfm06FoLrHy+pdnHnB5lMhRQ68idNSpypg98mHN1XeVA9aVdIyYiHEddpDDC7W/vcNx/u17Q4jxZjeVfod3QQLyEVl96h67ss5NX16Z+mvHzLGXfaLOTnBPm1/txBCJKUgIzdr8+8fm06GjM4yY5oHaelQXsUNVSav8iZYKeomWRgt3tF2o+n+QBiKbLwcdKbp/sCAFt6MHn4kZSkphIRrg+pBs7ODoQcEM03B3iOXU315Yf7psMHDzphMQSsp9gNPVL4xE0LieYr/RCawxxlJTbHKrhFk8vJDKRd7+QTAhMbSAW2/hYZv9vDDSnHAdvjlgUzeUBZgJ1wClymXmt3ccCbZad6yb85YXh7WEgiMFPtUAaObG9XCAXQHqERtk4c+qfwdFDW5uVGAnYkUBNaM+2S1SNirMYSR0r1MsgYP9/u5a2vTi4SRO1QBraVJDy4PDExzsl9PeZh9bubKCrVAwNvAA3WTLIOLtc7PO6FeWtwYQnZGas0kC5jn2dcYV/O74gayM/JbqgAMPGJHCv3/ml0dgspSDcgSntUmMeAkDEf44uJnJlIQZ6SidVKH2m12nX4HOXzyiUyydp98avux3hReFjYAq0mRE7tPvgoWaqq4Hzyg/B0S2+IVEtocBL6onwBiLJT0eQshxLQFsufsXQhbXab8AwKs1ABEEuArrcXCaAiNXDksu+zq6PieCZOcFqSdhQ0x0wRU3UaJxWRRUxzgQkkd4JcYJXalS6IpNloKrC5pHVbOBTzGfXJlmpjZwy0BZqLNF+jNaSGjpMIcrm1EkSlpjoClUS3wQrVbCXEjUHhQbNux3iTZTRZWzxjCaTli8ArfA1noPlZazJubWxMBQxTwh8iYPOxv0hQ0udkfw5ybqtIxSOgYsGvtdOfwB5IXK3K7T98Gghlz+OQmhz9wykoK4UUFZyMwc0A6zM2tTew4cSvFZoT2YYAPnJEDGCXeXZB/ekA7n2QV1scxStiRKSo6GyX1vKXJw5VHW0bHdwoYlLz7Gge1/bWyexTtq7uLCk+/k8QvDbUaNnq42JJt59TqT0JIYz+CgtAOY7D9h5oTNkq6aFx69OMZFRzPB8EyGy3GjU72l+ksWmyFlwIlLDUZ9ga5cxg4I8ATRou928aNrdoNfXfJtnNRjBZbtNibkVFDiLSWASnFSPEOVKUiB68BkNgzV5YPrOHaRoH5AAsHcIUEn5tbE8IZuUHpMiYv9wMbLd527q6PAdRA7h6+PIB2nryNAPuSrwyE9G/I3wmVUz1E8Ite3XBcZbewyQNNQxgt1eFU1ce0skYP+1vIl+n+wGVQwEZLbbhPPvSATqVPfmC8mRRetzPycZyWbsB2+APHrITgtSzjv6x71AWtC/hddlnbsLZgsnbVw1tK22S99/+2wCJ4M9lam8ob8Ojq0tYhKyEMQFuarIO824JvTe6yP2ViNY+8DC7+h1ZSDI8fjKAC5607PgBvfxYvxxjc/K8mIwzKMjsPfxZYM0ZLuy1eIfqXleXJ1y3dk6xprrLvQ4EsP3xlCHqvVtHiCyFEF11KvLS6qt/sFWLJxyOfXIH7pL02Stxop+U9dkYqcTByA0YK96BNzt94IgRFBQ8BW4LdANqluiddBlfJF2y0GJyTHRyAas0EE2JHAu0/fx9tP34rObDn8u1oQ/n15Ay879xdBC8HWir3AB2ekoIPFppi9vIvgjdf23gyDPBQ3Z1+Yc0jbshlMHRRwdkEPNHpnuaCdxu9k51lZ6RGILSLtpwN5wrXxoCllFyJJAEX+i14C34GJgPYuPPELZTDtY0tKjjTjzNyFKfF61YvTz2V19WJFswQoKyVEAocjFwHOAj0Cpi50c2Nwc8w5+CM3G73B6qtpJgH88v4Ofs9sf4DSkdczQJnyfsAAAAASUVORK5CYII=;" parent="1" vertex="1">
          <mxGeometry x="432.25" y="-522" width="40" height="40" as="geometry" />
        </mxCell>
        <mxCell id="OrC8Zif0g1K16IDU79yB-24" value="" style="shape=image;verticalLabelPosition=bottom;labelBackgroundColor=default;verticalAlign=top;aspect=fixed;imageAspect=0;image=data:image/png,iVBORw0KGgoAAAANSUhEUgAAAGQAAABkCAYAAABw4pVUAAAACXBIWXMAAAsTAAALEwEAmpwYAAAWiklEQVR4nO1de1RUR5qvccZkd7MzYzK7O5l95cxuTjYze3bcZCabGZMoGB/4wkfEB/FtJDFGBUFFVIyo4AM1okLQ+EYUlSg+EEURASUgChFRWoOAvLqhX3VbM4lJrD3f9d7u23Wru+/tvtAkoc75/hD7VtWtX9X3ru8i1NW6Wlfral3N12Y2m5+z2WxjOY7biDHOxxhXYYxbMMZfcRxHuMetHmNcgDFO5TguDGP8X10rr2F78ODBP3MctwAWX1h0b6iG47gl9+/ff7YLHC8bx3G/wxhnYoy/9QEIJ8IYP8QYZ1it1le6gFHY7t+//xuM8TaM8TdaAcHJgflOGONXXcC4aRjjYRjjtvYCgpMDY8IYT+wChWqEkCc5jkvCGD9yt4BWKyalJVVkR+oJsijqYzJx7AoytP9C0ve1cNLvjQgybGA0mTBmBYmZn0q2pWSRK6VV/DOegDEajWsIIT/pAuYxGH/Lcdxpdwt2t6aBbPnoCHlr2BIS8Jc5qmjkkMUkacNhvg93YzQ0NGTBxiCE/MxsNv87sDOr1fo00I8GrJaWlqcwxnmuFqmxQU/WrEoj/XpHqAaCpjdfDyfxcXtJw71ml6CYTCYLxvhrBmv7K8b4OigZHMfFWCyWl35wIMFOxBjnulqck8eLeBYUQC1s8OAlZPGydLLnSCnJLW0g1+ruk1vG78ittu9Ief0Dcq6skew5XEqWfniA/y39/JB+C8ixzItayJ9mjHEyaIPoh9A4jlvHelGz2UJWr0yTLeSMGZvI4Zwb/OLrzEQR3TI+Iplnq8jMmVtl/a1ctpuYTGYtgAG5d9pmswWi72uz2WwhLAHe1mYiUXOdFy9kVBy/qEpBcEVHz90iY0avdOo7fNYm0tZq0lJrywBDFn2fGghLjuNMrJNBg7Fg0R5yvfkrn8EQqbL5a7JoqfPpm/3eRmI2WZzmUV/XRO7crueppaVVLSjgvpmBvi9N4LuyFwHhLV2odZuzNQNCR9FHH591Gits6lqycF4KGTtyGQnsNVfG3ga9OZ//zfo1B0jeuSuKWF1bW9sOQkh31JmbzWb7A8sVAgK8o8DQgWxp+45ELdjltcYGAK2N309u3bzrFpTm5uZii8XSA3XWxnFcGj3ppkY9CQ5yaFMLYva2GxDVpkdk/7FrZMzoFa7V4zcieO1s9MjlPA0MnO/yt2CQgnJQV9voEpSmpqbKoqKin6PO1Agh3TiO6wP6PD1h2GniC8ICaCkzdBI6W1JPpk//iGGfRJCwGUlkx4HL5EJFC7nZ+q3s2au193nFImH9cSaYoEpnHS1wCYpOpysOCwv7O3/jgKxW6x85jkvEGN9jTRSs5/6959lfTAttSkdRaQ0mi2P3k8DXnGXDkIGLyKbUXN52Udvnifw7ZPacVBkwIAdBKWC9a0lJSRZC6Gf+dJ0f8iT4wB1itzPe2aQpEFWGb/gFD+rrzHLe7B1BEhKzSEXDlz6PAcDQJyZyzham0Ac1Pzk5eT5CqOMsfI7j/gFjvF1JDMNqtTr5pg6drtQMjIMnKnj2R+/guRHbSeGNNk2Br2z5miyM2eusrkck8+9Hv3NLS4upV69eHWNAYoz/7Io1sSj3TInDHTJoMa/5+Lo45682knff3SwDInRcAjmWV605O5QSaIbSMTetP8R878LCwnMIod+0KxhC7FrmlJNSQ0MLOXzwPL97Bvdb4DR54PG+LEZZrY0sXX6Q13poObFtX6EmYCuhNRtPOI0PNguDM3wXGho6CyH0hOZAgMeT47hN7oC4UfkFiYvd5SS8adp9qMSrBbhp+JZs2ZFHBvVbKFNd41ZnkvJ76gW2r2p1+LztDq0xeCkx6Ntka1JcXJyPENI+jIwx3uJS/2587Dqnd61IUq0HVFK1L38sr5qEjo2X9QuOxAvlzR0KhJTKG74kw4cstc8nNfmYbG3MZvPDl19+OQwh9AvNwIBMEFdgFBWUk1FD5a7v6VM3kJTd+aSoqo1nJ+LfgeUofeH8ihby/vvJsr7HhaxqF7XZG9qbecXJRmH5w9LS0nYjhF7VBAybzdYPEgVYYKTtyZHp/B/M/pjkltxzmjSon+L/A+tR8qJbd14gfV93PnGD+0eTlF35TIPOXwRu//FjVtnnuH/vGdk63b59uxohNAYh9KQWqq2eBQYcT+ligQsCYhisSUudeMB7lbxokMSmAGCWrTzEW9H+BoBFOw8W2+f6zqQ1LOH+7fPPPz8dIfSCr4DsYoFxIO2sLKB05S7ncsLeABIoOXl515o0Wzw4XXD6gO1FRO0gF6/rfe4TDM/+vSPt86354p5szeLi4tYghPr55AphBZYK8q/xMWtx8DlzU0ml/qH7xfURkGqFz3ijHICWBmq0r6dv1gcp9j5PZhXJAMnIyEhDCI1DCHnnpscYH6U7BbUuZLhDq5g8KZG3Xj0urp8BKaxs5TeOK1Wcl08DHssnNWFjKW3YmmPvK3F1ugyQ/Pz8Mwih8Qgh9VFGm8323yxBLvXWgsXtjk11BkDKG74kK9d8yp8Cp8Xvt5BsSM4hYWFJMmAmhK7h/VZqx8o4dd3JnUKvXVVVVbkAyIuayI7qW7VOrOrAyQrFk+1oQG4ZH/HZKLBpaHsoevE+UibZSOBXY/nC4ERdumlUPCZoluKz0yYkyACpr6+/JwDyJ1VgQCiS4zizTCjFOqJuYBuoWaCOBOTExTtk4ttrZAsMpwH8X6xnQBUHdsXyFsclZJLPmzzHbQorDfbnIMuSXr+6urp6AZAAVYBYrdaBdGfNzQYyMMChRZz5rK7TAfLZbQu/++k4+chhsfxpUdJH6RdWXsDTthVY45+kX+JPnqtnQVuzAzJupQyQ2trauwIgg31OTDiSkeckyNWA0d6AVLZ8TRK3ZJMBfRwbBmhAQBT/9xsG9xogi8C9M23aRtkpg3c/feku8xn4u/00Tl0rA6SmpuYLAZBBqgDhOO4K3dmi+Q4NBY52ZwCk2vSIpB8vJyOGxjrLiV5zSeT8naS42qR6nqz+RwUvY/evMzv9ft/RMvtvlkRvdyfUg9TGw+/TnUkTEwoqDX4HJLfkHjNmDhQ6dhXJKVbHUt2ReAKlhh/rBMavc3gutm7KlAGSnZ19VABkgGJArFbrf8qEUW2jfSBwfXujgmoFSGkNZvL4vsK/+0h2cfSSfbxM0AqYYt1jGUVvANDQsvJ0ZMqkRLexkcTExI2qhbrNZutLd1R82aFfT5uywauX8RWQSv3XfMIbnaYDuxYCRWW1nKJdrAUdv6Ajb49fLWNj4juCacDy+A4aNGiuAMgfFAOCMR5Ed3Qm2+E4i4j8xC+AjB75oWxngh+KthNc7eJRwY81La1AAWseopNgYMrm9cFmZphi165d2wVA/k0xIBzHjaA7Ar+MNP/WH4AESOjt0NXkeP5tt8+CpQ0WN/0sOEFd2SLeELBQOkVo0rh4PpGcXkeLxfJw8uTJ0Qihv1cDyGi6o9OnLtsHmxe1s8MACaAAGRq0iGxLK1LsaxKt9WGUtR7Qa47MWvfttDwiq9YetfffR9CyMJZfr6uurq5CCD2vBpA+rIigdIf544QsTzjidcwc/FmQhUifFmA3SdtyFQfMPFHS9nNO/e/ecYrJuhITExMRQspygK1W6/N0B7rqOvsgI4Yu9Qsg1T56e+F5FvsDgnskR86wA2tqCZItHArHPFJ5/Y4MkMbGxpYnn3yyn5pLmXS0iwQFRtkHKrlj9QkQpQZbYDsBEthrjuuEiYoWn8aBFCTQRMU+58zcxDwly5YtW40Q+lelbOsO3cGc9xxGmDfaCqifdlW0TySfaOYpjhLYboDM5aOG4HFgphQlZPqUego+Lam7/+KFazJAysvLSxFCQxWlmkJ6KN0B8ENxgLnh21RPEgBgOf32fVrmcrED2xEQ8e9wiRQAYCXd+RKsWh5/2N5X+KwkZoz9lVdeeU9RViPGeALdwW1dnX1BYfLe+InOwBWBqY7jLBJYuNmXa/0CiE6g3CsNvMJCz23ShLXkZMEXqscDP5eYMQPjwXU5ek2TkpK2IIRe9wiIzWb7NRRuoTuAS5PiRCEDxDeHndwhCKrolRrsF0BESs+6xnQmrt10UvWYwEnsbH5ntgyQwsLC80KM/W+UnJJMuoP8vKtOvDb/c71PFzKZro5Ah6vDH4Dwc9M/JBu2nHaSezBPtXMAWetOuDc0NDQLlvtzHgGxWq1BLO1AKtynTF7vc2KzK1dHyKg4EtDLP4BIA17SOamdA1jx4rOD+kbJrixARs8zzzwzSVHer+CG19GAgF4tTaQG4eXLQokErhBwiQRIFkD03PoLECBfAAGS5v2y5IjgcByClDSO44azTgnwQ+lEwQurBSh2V0dQjOzERC/eqyonWEpwjQ1knj8AkcZsLhd9LlvLqKio5QLb6qYIFIzxeboT8NEsXbTdaQcvjz/iNt6sagHvPeBdHWKMQ5rXq8bVAez04z0FfL4VLaQ7ChDwjovPnzn9mbsYiTKHo81m+x+r1SoWnbQTeDOnhDpbu+/PSvbKindFBZUGp2xAkcaOXukx893V9YWOBiRqoSNTJ/vEJRkg8fHxiQIg/6QIEIF1TWexLvD70y8Lli/sSi1vMR3Lq3bKLpe6OmhND+4Uwt1CuZKw3C+ASF3z586WytZwyZIlCapjJKywLkTE7ElzvZwv5ADB7jx6Xrt7fjc9uDpKb1tI/Pos0o+6uQV5VsDmbugf+gUQaVi3pLjSnQz5F8WA2Gy2MXRHEDMWB5o6ZT05VVjDZ5PTO3NOxDZNb8Jeoe6hi3KMdn3A/8PvQPX0l5YFMlUacmYVUwsMDJwtAKK8pC3GOIHuCLIqxIEg20LJLtbirrhOkjdFq8nuXDH+AASuUIjPjhgcIwPDbDb/tVu3bqHeyJBsGe9b6HALgINQOpH2ctjpBALFgZWhGDx4scsMRX8AsvmT827ztGpqau4IYAApL8XBcVwp3dmMKWsd2kNRDXNCUJIPKjbQO3jSxLXkZKF6h12l/iEvD+j8W3Dng5rsLv/WH4BIY/pHj+TLAMnPz88RwAhRDIbAssrpziB3VRwMLma6mxhkl7814kNmdvnlW8q8xod8zFDvaEBAporPDQyMZF6Xjo6OXqE6cU4A5IZbQBQ4GSEYBbubzqsSd7erqkC5GrnFOxoQad3HVcv3yMBoa2uzPfXUUxMEQP7oMyBwsVEc8HSxPJahlv9DrF7K/69pLIc6EpC0Yw6vOMy/mlH47NKlS3kS+fFrVYBwHJdDdwgl8sRBD5woV7U4QCBDYJfTO3/GO5t417dMU+sdwafaeKupdRQgkLoK6UriM3DjjF47q9X6KDQ0dIEAxijVFYNY1xM2rD3oc4k+V7ecAtoh+aAjAAGlA2wy8fchw2OJwWCUAXL16tXPJKfj/1SBIQASSXd66vgl+8DvvrfFp8USg1W0lT1Gw/Sc9gYE3gF8eeJvoTb9pUK5dxdiIFOnTo0WwIBo4S+9AWQw3XHt3UZHcnHvCE0u9MOVsMj5O8n4sfEkeecFTas1QDy/vQABNiVN/QE6nJEnAwOoqKjovOR0vIa8aWaz+ZesImUz33Ecz9S9BZotnk5DAtcJ1O6V+tqC3lygGSAHT34ui9/A1xxYYOj1etMLL7wwXQLI014BIpySQnqAjHRH6iTYCJ2p/sgNw0PyUYr8+gKwRcgPVlo2UKpU0NfX3pu5xVnxeD2cHNyfywQD0n4kjkTvZIe0Wa3W2fQgra1GMlyiUcClSH8DoTMTXutjGZEQLILKREr7gWRsqboN9ha4QyZNWifrG4opwD0aFhiSakAiGCN8LmgmFKGRlX3d/YkjgQ5UVS0DVDqVBEYkqxAAxFI+zb2puj+4aWyXOy7qgIHwhqoNcEvZFRhnz549LgFjnCpHogdQdsgtThMZ/9aHTipqR5XY0wkE1SSWfHhAFpMB3q7m+gJNOzM+c6mKDwiIJAkr9nmsdk2BMd7nakDSZrFYfsuqtVhUWOG0GJBQoFWxGJ0HHg9XAEBIO/HyNyLIyrVH+WsIvvRPpyfBxdfFC7bxjkJ3J0K8nJOenr6HAuN/kdYNY7yVNQH4BpR08nEJ2iU96FzUFRnzVhzT2Qjqs6/9g4Ii1Z4unC9zC4CUmpqaWqdNmxbT7mBAMxqNv8AY1zMMHhIb48iwAIJUSq0LU+Zda5JpN7ycgJDxuVuaAm7XIIOXKvrYGGhSFy9ePPviiy++IwFiLEKofb8+Cjd1WXW0LBYrnx4kXShIFINCx74uUFmtjcSuyJA5GyHFR+ukCiCpoZe8+VOPYFRVVVVK/FMiDfPJ1lDTLBbLZvYuwU4lxUWCrHcARq2ALdaZefc8bU9AZjmwRW9quXsiMPbswrtPpMuvIbS0tLTm5OQcFy5yjqc0qT+1S61eV40Q8lO9Xi8L7YoEKS/wCTsaGHAkwsV/CPtC3hUIZulilNc/4D3Bm7ed473BrA+ugM/IU1DMWwJvsjT7PXH1AWbZ1/Dw8GWSeLiUAr3yT2kEyhN1dXUlrkBpbjKQjYkZbosqw4JDRiIQXWSsD/VbKLmklbORRaAZzovc4WC3g2KY2lRJSUkBBUIwQqin4ouc7dlqa2t73L17V1ashnZEAh8exTgxSik6Zl+7q9LSm7qwUaBgAktwS2QFlH39R9TZWmpqavfLly+ne9ZCMJ8sBuVl583ezMcLpBXqgIICo8i0iQlkxbLdZFaYc3kkqGnYXieDvjYN359ivUNeXt5pycn4M+rErXtGRsYao9H4QKm+Luw4ni0AGY3O1Q/ga2rS+yjiJ5K0/CoPyAwo0eF0GiNTmJ+fMBgMWOKt9S6W0cHtJyEhIX1LS0uL1IDijoxtJhLxQZLsMo+rgs2qtKkTFbLrawAGvTEEO+uRJDEa6GX0PWr/sXDhwiXXr1+/CvFjX0ExmywkIc75IypA4Eg8lH1dlSoNVxkACGmoVZQZEJZmnQygU6dOfSoBY2SHqrQaNbjI+Jfg4OCI/Pz803q93ufvpp/MKiJDB8ir70BSQUzsfr7cN6SYQv4vxEOAwKAEry38H/impB8FEAnU87M5JS7HraysLO/evbtUxVWeGN0JG2ghvYHngnZy+PDh/WVlZZehIKTJZPqS5ZQzGAwWT5/FALe3txqbSFDUc+O6g0Tv5uueUJbv2WefnSwBQ3mtq07efi4khA2X6vBQoB58PyJ17949tEePHhNLS0sLPKnSkPANfia1QIwZEUs+3nKU3Kt3/WlvoIqKiiswF8l8+3ToR746sIF28jshyA8FIUfTFm+3bt3G5eTkePzyGzg1r129RXZuP8n70SaPX8WzIHB5AIHLfOrbCXyyM9yNrLimY5ZNojS/R+ASkWQWimX5fop+RK27ICifEAh2YrdDhw7Ftra2Yq20Nk9kMBiskltNIr2h+FLmj6H179//NXBrwwe22gsIi8XyDRTLf+mll96lnIQ9f6hsytf2XFhYWCTYOCD4NQTi27KysqIhQ4aEU6dipKpbTT/S9gS4teEDW5mZmekNDQ2N3gIBWl5aWtqenj17hlFAjBWUD98+TfQja0+DjQOL179//zkpKSkpcPkFgkSNjY3NRqPxPrAgs9n8Fdg/tbW1dVVVVZ/n5ORkrV69OvHVV1+dyXCbAxC9VBWo7GqyBrv490JpivFeUpCQCdJ1IjRuTyGEfiuwm0ChWttbws4PEeyfIEF97SmU1/NcFqmrdbWuhjpX+38W11CKHeakKgAAAABJRU5ErkJggg==;" parent="1" vertex="1">
          <mxGeometry x="425.25" y="-752" width="60" height="60" as="geometry" />
        </mxCell>
        <mxCell id="OrC8Zif0g1K16IDU79yB-27" value="" style="shape=image;verticalLabelPosition=bottom;labelBackgroundColor=default;verticalAlign=top;aspect=fixed;imageAspect=0;image=data:image/png,iVBORw0KGgoAAAANSUhEUgAAADAAAAAwCAYAAABXAvmHAAAACXBIWXMAAAsTAAALEwEAmpwYAAAFMklEQVR4nO2Z209cRRzH9x8xMSZaq9UCpbRlubMXYJf7ZZf7pQIaH2piH2pSTTT1Fh9qjCZqNI0xvlXjhUhpQbAEQlPacqcUqchZKJR7gQJnJvmambNz9kKhe85BsMlO8nuBED6fOXPOfGd+JlN4hEd4hMe+j7zq154pqqptdFfXrbqq61BUVcursPIVFFacREHFSeSX1/DKK6tGbmkVcliVVCK7uIJXlrscme5yOF1lcBaVwlFYwiujoATpBcVIy3cjLc/Fy57rgi23CNacQliyC5GaVeCtfKRk5iHZmYckRy4SHTlKZWQjIT0b8WlZMNszV+Jszl+OWTIOqvDu6rql4pp6uKvrIAQEvL9AALyfgIAPFhDw/gL+8NYAAQV+i4AXXgjE2TNhtjsRa3UsRNtsT5nYzDP4D89/hpnZWRBKd7cI2bZkjSV5POgfHMSpM2dhtjlxwur40cSWDRPYa3i9ApLHg97+AS5w3Jr+wCSWzq7D7/Lsy34CkiSxJYQTlgw8eQKSFCggXtz/O7zsJzAhSRz+yROQpACB45b0/0BgoQ9k+GPQrhLQtiTQlqOgVy2g12tAxr6GvHbPkMBEsID47hsFp8ujoDfqQVuOgDZHgTZHgjZHgF4RdRj0ysv8d+TOp5DldUMCDP5Y6i4J0MnfQVtjQdttIOM/gKx6QIgMsrEIMtsJMvAOaEsU6OWXvHUI9FoZ5I1FTQITjxIQsUE/fAPoHzGg10pBHs5tv/aXhkA6shT4yy8qdb0GsrypS4DBqwIsNugSYMum1aysdT7rj9m4Nle4qCLwAmjTQZDx73QLxKSkGRNQ1nw06Ng3oX952FNqT1MFaKsZ8ua6fgER2jQLLA4qXxgm8OAvTbGBTDUp8E2snod8r1mzAIOPSbbrF6CjnyvwrWYQqjXzyKCdBRyeNh0Auf2JAQFvZNYscPNVRaDdriu0kbsXfAK9p40JFOgR6MzzPoFY5ZOpdded6/IJ9JzSLpBsx9FkmwGBDqe6aZEd3oHtYMjSCIenl54DGXhXv4A4bWkW6K71Cdz9Vnvmme/xCUg/aRZg8MYERs77BNrTQDZXQxN4OAsy1QjS9xaHZxubvD6nSyA6yYAAWejxyzyRIEMfaEqcxPMb6KUDXETPRqYKiMO6ro3s5usBoY0MnQMhm6FF5rVpkN43NaVTfwEGfyTRakCAzeKqpMQINXUeVkLa/Q7fP17ogby+4Jv58e952JNn/oQsb4QMv60Ag9ctwGpxQMn7/pGZJc7OfH4uIIPn+KbFchMXkH4GWb6jCVx+hACDVwXYXY8ueFFr90H6z3qfhFdATZ3ezMN+1l0LMvoFjxLs6ckGBaISLLskIGplAmTsKx6TaVuiKkCuJoN21/ODDBn7EmTwPdAutxKn528YExA3bYbhdZx3CRPuOwPy9wVNAv9MTHD4qITU3RXQs65l9reTDSCeBn0C4p5zr2d/S0237fhVWt/YUOG3CpRU7tvsyyEUg5+emQkSSEVkvJ/A5NRUaDU5CU+IpV4F7lSS78V8XAn4AIHs4spVdkU+PDKy9/AefQK3evs4fERcypIpu7i8kQm8/f5HGBq+veezL2mE7+nrR/0bp7nAYXPKRZOjqOxQlrt8MbjDEtyk2KnDEtykEA2K4CaFaFCIJoXZxhsV6j2nuOsRpy0RmUVsEC8ug4+MT5mPSLA8y7s0dpfraUdh6a9OV9lKcIclWEDAb20Rbd9hCRYQ8GY/gQB4PwEBLwQiE1KXI+IsF1X48AiP8AgP036OfwHpZiyM7HT4zAAAAABJRU5ErkJggg==;" parent="1" vertex="1">
          <mxGeometry x="417.25" y="-646" width="68" height="68" as="geometry" />
        </mxCell>
        <mxCell id="OrC8Zif0g1K16IDU79yB-28" value="" style="shape=image;verticalLabelPosition=bottom;labelBackgroundColor=default;verticalAlign=top;aspect=fixed;imageAspect=0;image=data:image/png,iVBORw0KGgoAAAANSUhEUgAAAC8AAAAvCAYAAABzJ5OsAAAACXBIWXMAAAsTAAALEwEAmpwYAAAEPUlEQVR4nO2a/08TZxzH+StYCM6o+/LLAm4BBsI2mC7GLFGibFncEl3ikv0wsoxoMghbliBmmoJs0A2ywWRmkyKOZdguUKiiiJ0YkFITg3ot9Mtd27vDtuNLKeXeyz2VytGRlsq13dJLXj/cc+G5133u/TwN+Vxa2prDzvNFNMc/YDgeckBzHMWwbEmaHAfNchNyiT95AP6+PPIc7410czvLYcRgxPDtOxJGxo2gWTayPMstySLPuGh/pJtPMw709Orw+5/9Ev7o1WHKTkeUt7ucgizytNMiRPPqxerbHE4J4lhU0WGdSKj8U8HKJO8wVPqchmrIiWO8alkWeZc23ctq0yEnrr50eRZsSl6bxJV3XcqA7YvtMWOt3r78MC/r841A5WRVbIo805oJKi87vuRme+WRz38Z5t2vhaBe3RmToKkw58k8bxbGR37xwSRWH3ND10LXFgx3ICwswLzndcnfMCc+BQQB3Lf15FwUXva4JfM8am+TX14IBOC3TMPT3UVwVB4PXfPdNRKR+b9ukjckjk2//RYC7kdknP++kYxZ3i0l5z7jRHCe37pg/+hIfOT/1lz+1yjMDl6BsOgLVvL8TzAV5QYfSBDIGHvmlESeb/omvpmPJC/GYW54iAjP375FJN2qX5NE3u+XZHVW1x8mL2Z+iWOD16/qYPvwfal82X7JHOKDzvzYIr8816DA7EAfITDDY4mmw+TJIi3/GL67EzCV7ILt6GGJvLge3L/8HJpHWFzE3I3rcdgqVyHGYj351djWyq9BLEJKno1Q+Xn9MJa9HoK4eJdou6Ty4rYYVvkjjyt/uja4zxcXwG+mQvOImV/9eyFbbGaalaGsiqwIkZx/9glZE2G/pkV58FzswPSBfcHzglfg6VJJ5mEqyuObednITcmnh1d+VzaYs1vhVGVEBdOREZjMzdqxEcz5O7dtemxMBdlgGp/97/wbyKzIixVXbkw8KeRNMVQ8KeQd7ZlgmmITT7g8+5S4UvL/18pf7yzE0a8a8cGX30HVdpDc9IZqP+oaWqE427Yu55pr4NI+A/OlHVC+V4760uOEhkMVGG3JiY/8wIVilFW1orSyHed+OExuevXCO6hVdOCkonNdmpvqiTx18TnUHTiB2r3VhK/3VWFEmZ/KfMTKT/Q+j1r1QdSoyzbMSfUh6HtfIlXmO1+Et+4NeOqLwXdvi0/lz2tK8EL36Zg5dTm4TryKEiwcO0Zwt+TFLzZT2i2gtFtjQrLDaLaA02Sm9vlN64xYx2pgvNkEo14Jy1hN4jsjdJQ9qXvUFHr6roQ6gT19OtyjTMnfUKNZDpr+wbBWplo7GFUflpFLPpo+rMlqDxNfgbJYE9iH5SJ3wK0O57ryYoM5YR1wOspvD4ZujYaJX9OPRNuLnZRF/vFXH/cjv3oW+jED1AODJP/60XHYXFF8d8BxD2nXTPFmyP4DadwoEbNqUtoAAAAASUVORK5CYII=;" parent="1" vertex="1">
          <mxGeometry x="427.25" y="-422.87" width="61.75" height="61.75" as="geometry" />
        </mxCell>
        <mxCell id="OrC8Zif0g1K16IDU79yB-33" value="" style="shape=image;verticalLabelPosition=bottom;labelBackgroundColor=default;verticalAlign=top;aspect=fixed;imageAspect=0;image=data:image/png,iVBORw0KGgoAAAANSUhEUgAAADAAAAAwCAYAAABXAvmHAAAACXBIWXMAAAsTAAALEwEAmpwYAAACV0lEQVR4nO2YPYhTQRDHF9FGRBRBEcHkzSQqp5VX2HmNIIj9IWIjaCFWoldocZ3YeZrZFw8sFEQsLKy0s1AUETsbwS8Qxbs385I7EMXPyCbchRyP3Hu5vOxG9wfTbAiZ/3ztTpTyeDyeJID4CWpptI0fq2ECO5xvmRom0AuwjKn5jiyQPLLt0785VSDjuXNNiRnP/wsBpaqMjE02Vg+lAAg/b0bNdSR5Ua7KttynStbz5X9Hri18B0jeFi7XN6hhYYRm14GWL0syd9vKtOllOgWhHEgqPQjjPQOv9V56IyA5nvQ5kpw3pVQOZyCYmtmiJhurnBQAFB1JFLA0I5rngfgOUrzbKQHFkHemEdAWIq9zmza9TifQ/CytgJLmU8oFtk5/Wos0W0Idj6cWQHy32QugeQJJvmVJnU0D4u9Icmnxpgbij7adwu6RnkOS56DlHhCfK1Kt0JE+1wUElehw1/oznexsuWh503XmG8wUcLd8ohPLTgDUcsvN6PO70enGmhQC+KxtZzHR4nGVhjJF+x2M/gOVFpMmJK7ZdhoXjLhWqNaLKgtAfNO649oY/waKDqmsYCXa60jpTGR2flEE8X2LZfMHdXxGrYQdV+tBwjo3iKj/xJBPqn4QEB9tRWNQkZdXZZJ9qp+YNzYS/8o16sQ/kHjKPKP76nxbRDSGxO9zcP4rEF83u63Km9HW/XAMND9dSUZMjQPJQyQ5vT2c26hssKsyv6m5LRFfNJsQEr8E4g/NC9D0jFmIiGvmj6jm45D4Bmq5gJX4YOmKrLfitMfj8XhUCv4C/ORt+IwyXI0AAAAASUVORK5CYII=;" parent="1" vertex="1">
          <mxGeometry x="259" y="-120" width="60" height="60" as="geometry" />
        </mxCell>
        <mxCell id="OrC8Zif0g1K16IDU79yB-47" value="" style="line;strokeWidth=4;html=1;perimeter=backbonePerimeter;points=[];outlineConnect=0;direction=south;" parent="1" vertex="1">
          <mxGeometry x="-640" y="-930" width="10" height="870" as="geometry" />
        </mxCell>
        <mxCell id="OrC8Zif0g1K16IDU79yB-49" value="" style="line;strokeWidth=4;html=1;perimeter=backbonePerimeter;points=[];outlineConnect=0;direction=south;" parent="1" vertex="1">
          <mxGeometry x="-80" y="-934.4300000000001" width="10" height="870" as="geometry" />
        </mxCell>
        <mxCell id="OrC8Zif0g1K16IDU79yB-50" value="" style="line;strokeWidth=4;html=1;perimeter=backbonePerimeter;points=[];outlineConnect=0;direction=south;" parent="1" vertex="1">
          <mxGeometry x="70" y="-937" width="10" height="867" as="geometry" />
        </mxCell>
        <mxCell id="OrC8Zif0g1K16IDU79yB-51" value="" style="line;strokeWidth=4;html=1;perimeter=backbonePerimeter;points=[];outlineConnect=0;direction=south;" parent="1" vertex="1">
          <mxGeometry x="230" y="-930" width="10" height="860" as="geometry" />
        </mxCell>
        <mxCell id="OrC8Zif0g1K16IDU79yB-52" value="&lt;font style=&quot;font-size: 24px;&quot;&gt;Микросервисы&lt;/font&gt;" style="text;html=1;align=center;verticalAlign=middle;resizable=0;points=[];autosize=1;strokeColor=none;fillColor=none;" parent="1" vertex="1">
          <mxGeometry x="-476.25" y="-960" width="190" height="40" as="geometry" />
        </mxCell>
        <mxCell id="OrC8Zif0g1K16IDU79yB-53" value="&lt;font style=&quot;font-size: 24px;&quot;&gt;БД&lt;/font&gt;" style="text;html=1;align=center;verticalAlign=middle;resizable=0;points=[];autosize=1;strokeColor=none;fillColor=none;" parent="1" vertex="1">
          <mxGeometry x="-40" y="-960" width="60" height="40" as="geometry" />
        </mxCell>
        <mxCell id="OrC8Zif0g1K16IDU79yB-54" value="&lt;font style=&quot;font-size: 24px;&quot;&gt;Брокер&lt;br&gt;сообщений&lt;br&gt;&lt;/font&gt;" style="text;html=1;align=center;verticalAlign=middle;resizable=0;points=[];autosize=1;strokeColor=none;fillColor=none;" parent="1" vertex="1">
          <mxGeometry x="80" y="-970" width="150" height="70" as="geometry" />
        </mxCell>
        <mxCell id="OrC8Zif0g1K16IDU79yB-56" value="&lt;font style=&quot;font-size: 24px;&quot;&gt;Стороннии&lt;br&gt;&amp;nbsp;сервисы&lt;/font&gt;" style="text;html=1;align=center;verticalAlign=middle;resizable=0;points=[];autosize=1;strokeColor=none;fillColor=none;" parent="1" vertex="1">
          <mxGeometry x="385.25" y="-958.87" width="140" height="70" as="geometry" />
        </mxCell>
        <mxCell id="OrC8Zif0g1K16IDU79yB-57" value="" style="shape=image;verticalLabelPosition=bottom;labelBackgroundColor=default;verticalAlign=top;aspect=fixed;imageAspect=0;image=data:image/png,iVBORw0KGgoAAAANSUhEUgAAADAAAAAwCAYAAABXAvmHAAAACXBIWXMAAAsTAAALEwEAmpwYAAAGkUlEQVR4nO2YW0xTBxjHzxRte1ouvV+gFNtui27ZssRlb2bZi9sezPayZC8+6JYtcWNHnTqvTJmAV8QbojC8AcKWmSwmU7EUUASx0BYK1LJahGK2ZHHJhprFnfNfzmlPOcUWDluW4wPfYx96fv+v3/c//68EMVdzNVdzRQDPOeujr9nrxjYtOjNysaA2EiioCT+wngz/Za0KPco7fmfMcizYZakYOmI8GHiLKMK8Z6ZrL3w39oqzIRpw1I3Bfm4Ui06PoODbCGzVYeSf/Bl5lSHkHrsDy5EhmA8NwnQwAOO+vsvm/R6d1OyE+cdx0tEwHk3An0mGt54IIY+DD8JcwcIPwLi/H4a9fdCV+W5K/ks4Lowvd9RH4/D3UFAbga3mbhx+GHnH7yCXhy8fgPFADF5f5oOuxAt1cc/bkgpw1kdXOc6PYtHZkWh+zcgSe1U4P//UcF8C/mgQloohmDn4AAz7WHg/B6/9phfqnZ5dkgqwnxuj7GfvoeB0pJr/LK8qtD3veCgGf5id+wGYePg9k/CaXR6od9wul1bAmXsUt7Q14Wh+TWhJQfVdW+7xUN8kPL+0/TCw8KW+OHwP1F/fRs6OW9IKsNVGqMTSVqVxHHZp9/ihL/VBt7sXmmIevhtZ2zolFlAToYSOk4Cf4jgxeC+0LPxODwefve0WsjZLLEBM6cq8FDf3xT3Q7PRAXRSH39IJ1aYOTgCCuRSCucCQBRi0AAHTYwSM3egzvy81P6Er8VLc3HPwt5Gz/Rayt3Qh86ubUG24MSmAgzcDA2ZWANBvBPxGBn7DR//64Y6mX53OxvETzrpowH5+dCLmOCMxrz8VhrWKtUuB45RP4zg8/NYuZG2+CdXGDpDr22MCBs1UDN40Cd/HCjAAXt2f6DHZZg3/YtMvK56/cP+hsyEKx/kxsPCxmCCAr5xil9M5zvbuOHwnMjd1QPXlDZDrBAI4cNMkuI+F1wO9OqBHVzIr+MXf37c5G8cnnA3jSJVxrELHOZzacbS7hXbJzr0AfsMNKNe1Q0G1HeAE9JuppK779AJ4LeDRhGclwNl0v8J5QQA/NeNUTnWcwMyOs4WF5+YeyvXXQVJtUBS6P+ME+A1bk7ru1QngtcBtDXBLbxIvoGF8+KmMU52ccRIBjY0J+wUZZ3dqx4kvbQx+bRvkha2/Kz+9YogLaEzuum4SvJuFVwOd6ndFwdsuRnKcdWOM/fw0AY3LOFMDmmBpBY6TxTvOxo44fDsUha0TsjUtyzl4n9HALWrSyPDwag6e6coBOnO+ECXA0TD2Jr+0BbUiHadsGsdJwLfT5Nr2UXlh6ynZ5y4H/zx49fXpus6CM505YG5mg+7I3ilKgP3c6Ie849imc5wD3GHCjk1QU9q7UlvUY2EvM1EPYcFBzEOv/uB0XefhmY4s0Nez9or64kVnR9eIdRz9Hl+dsyIkEwstGJkP0KvzPNX1JPjsBDxzIxO4rtokUsDI6rSOI4Tf628hitwZHNSQ1YKgpQJBSwSDlr+feqOmtUdt2pGJgWeBuZ4Jpl0FtJIrRQmw1UbeS3KcY6kcx09rynoWx+GXIpj7WyLHJMBTvJRS2WN3+q7z8EybEnCRr4oSYD05/NJMjsPdsyx8xCZHMHckZY5J2XXdrLrOtKnAtCpBtygfwUMsECWAaMJ8a+XwxFTHEZ6E2pLek7HuW1YkdT0Bb5hhZMR0XcXBM24SdAv5AzGbyqsMuVI6Dh/QintjGWbAXJi664ZZdD071vUpI5OAdymewK1YOisBuUfvfJLqJOQzjnpXz5QQJmZR1aJHhnGTYFpI0NcUT9AsW0XMtuxV4WzToYHoZMZ56iQsT4QwMV0XuagMN+/kY9qlGKRditNwLRC3uKnKVD7wjnF//5NUGYc/xuE3UOm7rpb+XNTt8y/Tl/patCXeh8KAlrUtLsBroNKnx2dAwEwFr476b/ZISisSHh0lzh5TLyotvQANJdYe6TZVFO2qJWiTW2m3ws+0KEC75BIL6NZQYu2RdisTfz/CJd/OXJODbpZJLKBLs1q0PbrJcbiVL6NZnk9fk/czzXLQV2XS/rmLLs0SsS8lxqUAc00BFpy5KgNzRQZcXvAxIXXRHdmN6bqeDC8XwC8EfXnhH7hEiD/U/6+Cx0zS7aozyV3n4RUCeNkk/E8ZYVzKWEY8S4VWxet0q3Iv7Sbb6BZyhHYpJuhm+RO6WfaAvioL0lcWXMLlhUW4lPEGmoj5UvPO1VzNFfFs1D+F+yW2t3t/RQAAAABJRU5ErkJggg==;" parent="1" vertex="1">
          <mxGeometry x="-580" y="-383.63" width="38.13" height="38.13" as="geometry" />
        </mxCell>
        <mxCell id="OrC8Zif0g1K16IDU79yB-58" value="" style="shape=image;verticalLabelPosition=bottom;labelBackgroundColor=default;verticalAlign=top;aspect=fixed;imageAspect=0;image=data:image/png,iVBORw0KGgoAAAANSUhEUgAAADAAAAAwCAYAAABXAvmHAAAACXBIWXMAAAsTAAALEwEAmpwYAAAFQElEQVR4nO2Za0xbZRjHO42amGjUxPjBL37QT36TrAVBGaw9PXDac05LO6690VJ6Z+VSLqJcjJExTNQRE9hcsi2CkRljIpmRwCRmQDLNnJCJKBfZXLaRAWXcW/uY94whlPaclh4uH/gnTzg55fT9/d/3eZ73bY5AcKAD7T/Jja6XCKOjV2n3/Kuwe/yEwdaNGwwvCva71Gr147je2oygVa4q2Bi0zeNP09kuqNXqJwX7UbjO6qQtJQvB4MFBWUqXcL21XLBflJ5nxuVm920u8OAgzUX3sTwrvWfgcqPtVVm+4+dowTdGhqsKZKaiEXmW6fVdA8dznc8SBufXSkd5IBb4jaF0VAQIvb2L0ume20n2Q+n59nraWrbKF7gqKBS2Mh+hd7TU1NQ8xis5rrHoSHOxlwvA09gMHd/3wNCfY3Drzj1YXllhAl2jex2Xupn/4Sz0wuJ5XGO1xQ5usCXJTUWjbIOpi96Bj862we27UxCp/rk7BU1n25hn2Y247+BaKxY1OGZ0v0AYnQMZzkrWAez1TTAyMQnb1R/jk2CrO8le6M5KQCwkWfZMxAbkBccnuJa5+uMWmJ2bh1g1N78AtafOsI5FGJyQekw3HLGBDGcF6xfWfHoafH4/8CWf3w/vfdIaqhZAnGUASY4JxNlGiNgAG7y19iR4H8Q+86FWwl7f9LAb2csZaEmOce2vCcQ5ptgNoKKLJee5NDw2AbjOCuKs/HVwXg2gbsMlVBdt3/0ApSdOQW5pLRNljc3Q3tnFunLDf41BUc2HW8B5M4BmH7U/NvVdGwRNWV3Y9NN46qD/16FNz0zdn4YTn30OWG5BWHheDKANiAueq68/mghkAm1w5y9+CzK9lRWcNwNoh2VLG7aZ39TX0UnU5IJse+kmQKRQ17wZQEeBcEI5Hwm8LN+x3haDY8cNsB0VUMGyHwmKQ3YWyRosm3gzsLS8EnaQvLLa0Oni2NrPw8WOr8Di8jKEU3D+ozxP09shUaaCt+hsZheN1YBkt1JIZnJBEnkMRFJqPeJxBSQrc0OuBJd4MzA4Mhp2kC87u4C2lECKSrsJPDjeTFfCEZVmb1ag41J3WAOz3jlIVeawwm+Mo6pccLz7we4a4NrIen7qg3ic5oRPwGn48coABAIB6B24Cjp3ZUQbmWQ3jhLIRKoiO/zMK7Ph8pX+LUfpzu5eUFncO2sARWPrOeDSzKwXWs59AVp7MRyhMyGFzmKuW8+3wYzXG/a5B/MLcKb9IkhZzkTbNqB0lDOtMD5NAYO/D8NO6frQDabQk5V5TN+P3YCzEnCtFRLSM9bTgNYWMLPMt2a9c6DUF/7fsYgMSFHrtmcA/ZCWGV2QJN/czx+FpbQKVn0+3uBXfT4oLKkMOVaiXA1HMw0gieYn5duKnG+4uklBcQVMz8zyMvM2TzVH96IhUZ7ZE7GBuDjzEyIpVSfCqAW2L1bozPDbjeGYcp7WFrDDP2Sow3H8KUG0iieIl0VSskWIkf5wA6DeX/F+A0xM3owYfPzvm1Be38C1ZwREGPWVSEq9EjX4FiNS2RtCjLzMlVYamxtOX2iHq9euM4YWF5eYQNfoHvpMYzvOvVtjVP9hKZ0QM/hWI6RYhFFDkR4Zog2hlBoR4qRasJNi6gOjzUKMvMcbOEZNizCqfFt5vl0lEcTzQinZIMSo5e3Dk6uoxpJw9d69ABSJidfWii0Q5ax3HZbKd+/NDJeEuDxehJF9EYD/Eo/TyYJ9qkOoCIUYOR4C/BaqHfQqVrDfFSeTPS2SktUiKTm6FtXo3l5zHehAgq36D4PYBplTH6I9AAAAAElFTkSuQmCC;" parent="1" vertex="1">
          <mxGeometry x="-571.87" y="-467" width="35.87" height="35.87" as="geometry" />
        </mxCell>
        <mxCell id="OrC8Zif0g1K16IDU79yB-59" value="" style="shape=image;verticalLabelPosition=bottom;labelBackgroundColor=default;verticalAlign=top;aspect=fixed;imageAspect=0;image=data:image/png,iVBORw0KGgoAAAANSUhEUgAAADAAAAAwCAYAAABXAvmHAAAACXBIWXMAAAsTAAALEwEAmpwYAAAFQElEQVR4nO2Za0xbZRjHO42amGjUxPjBL37QT36TrAVBGaw9PXDac05LO6690VJ6Z+VSLqJcjJExTNQRE9hcsi2CkRljIpmRwCRmQDLNnJCJKBfZXLaRAWXcW/uY94whlPaclh4uH/gnTzg55fT9/d/3eZ73bY5AcKAD7T/Jja6XCKOjV2n3/Kuwe/yEwdaNGwwvCva71Gr147je2oygVa4q2Bi0zeNP09kuqNXqJwX7UbjO6qQtJQvB4MFBWUqXcL21XLBflJ5nxuVm920u8OAgzUX3sTwrvWfgcqPtVVm+4+dowTdGhqsKZKaiEXmW6fVdA8dznc8SBufXSkd5IBb4jaF0VAQIvb2L0ume20n2Q+n59nraWrbKF7gqKBS2Mh+hd7TU1NQ8xis5rrHoSHOxlwvA09gMHd/3wNCfY3Drzj1YXllhAl2jex2Xupn/4Sz0wuJ5XGO1xQ5usCXJTUWjbIOpi96Bj862we27UxCp/rk7BU1n25hn2Y247+BaKxY1OGZ0v0AYnQMZzkrWAez1TTAyMQnb1R/jk2CrO8le6M5KQCwkWfZMxAbkBccnuJa5+uMWmJ2bh1g1N78AtafOsI5FGJyQekw3HLGBDGcF6xfWfHoafH4/8CWf3w/vfdIaqhZAnGUASY4JxNlGiNgAG7y19iR4H8Q+86FWwl7f9LAb2csZaEmOce2vCcQ5ptgNoKKLJee5NDw2AbjOCuKs/HVwXg2gbsMlVBdt3/0ApSdOQW5pLRNljc3Q3tnFunLDf41BUc2HW8B5M4BmH7U/NvVdGwRNWV3Y9NN46qD/16FNz0zdn4YTn30OWG5BWHheDKANiAueq68/mghkAm1w5y9+CzK9lRWcNwNoh2VLG7aZ39TX0UnU5IJse+kmQKRQ17wZQEeBcEI5Hwm8LN+x3haDY8cNsB0VUMGyHwmKQ3YWyRosm3gzsLS8EnaQvLLa0Oni2NrPw8WOr8Di8jKEU3D+ozxP09shUaaCt+hsZheN1YBkt1JIZnJBEnkMRFJqPeJxBSQrc0OuBJd4MzA4Mhp2kC87u4C2lECKSrsJPDjeTFfCEZVmb1ag41J3WAOz3jlIVeawwm+Mo6pccLz7we4a4NrIen7qg3ic5oRPwGn48coABAIB6B24Cjp3ZUQbmWQ3jhLIRKoiO/zMK7Ph8pX+LUfpzu5eUFncO2sARWPrOeDSzKwXWs59AVp7MRyhMyGFzmKuW8+3wYzXG/a5B/MLcKb9IkhZzkTbNqB0lDOtMD5NAYO/D8NO6frQDabQk5V5TN+P3YCzEnCtFRLSM9bTgNYWMLPMt2a9c6DUF/7fsYgMSFHrtmcA/ZCWGV2QJN/czx+FpbQKVn0+3uBXfT4oLKkMOVaiXA1HMw0gieYn5duKnG+4uklBcQVMz8zyMvM2TzVH96IhUZ7ZE7GBuDjzEyIpVSfCqAW2L1bozPDbjeGYcp7WFrDDP2Sow3H8KUG0iieIl0VSskWIkf5wA6DeX/F+A0xM3owYfPzvm1Be38C1ZwREGPWVSEq9EjX4FiNS2RtCjLzMlVYamxtOX2iHq9euM4YWF5eYQNfoHvpMYzvOvVtjVP9hKZ0QM/hWI6RYhFFDkR4Zog2hlBoR4qRasJNi6gOjzUKMvMcbOEZNizCqfFt5vl0lEcTzQinZIMSo5e3Dk6uoxpJw9d69ABSJidfWii0Q5ax3HZbKd+/NDJeEuDxehJF9EYD/Eo/TyYJ9qkOoCIUYOR4C/BaqHfQqVrDfFSeTPS2SktUiKTm6FtXo3l5zHehAgq36D4PYBplTH6I9AAAAAElFTkSuQmCC;" parent="1" vertex="1">
          <mxGeometry x="-493.75" y="-570.75" width="33.75" height="33.75" as="geometry" />
        </mxCell>
        <mxCell id="OrC8Zif0g1K16IDU79yB-60" value="" style="shape=image;verticalLabelPosition=bottom;labelBackgroundColor=default;verticalAlign=top;aspect=fixed;imageAspect=0;image=data:image/png,iVBORw0KGgoAAAANSUhEUgAAADAAAAAwCAYAAABXAvmHAAAACXBIWXMAAAsTAAALEwEAmpwYAAAFQElEQVR4nO2Za0xbZRjHO42amGjUxPjBL37QT36TrAVBGaw9PXDac05LO6690VJ6Z+VSLqJcjJExTNQRE9hcsi2CkRljIpmRwCRmQDLNnJCJKBfZXLaRAWXcW/uY94whlPaclh4uH/gnTzg55fT9/d/3eZ73bY5AcKAD7T/Jja6XCKOjV2n3/Kuwe/yEwdaNGwwvCva71Gr147je2oygVa4q2Bi0zeNP09kuqNXqJwX7UbjO6qQtJQvB4MFBWUqXcL21XLBflJ5nxuVm920u8OAgzUX3sTwrvWfgcqPtVVm+4+dowTdGhqsKZKaiEXmW6fVdA8dznc8SBufXSkd5IBb4jaF0VAQIvb2L0ume20n2Q+n59nraWrbKF7gqKBS2Mh+hd7TU1NQ8xis5rrHoSHOxlwvA09gMHd/3wNCfY3Drzj1YXllhAl2jex2Xupn/4Sz0wuJ5XGO1xQ5usCXJTUWjbIOpi96Bj862we27UxCp/rk7BU1n25hn2Y247+BaKxY1OGZ0v0AYnQMZzkrWAez1TTAyMQnb1R/jk2CrO8le6M5KQCwkWfZMxAbkBccnuJa5+uMWmJ2bh1g1N78AtafOsI5FGJyQekw3HLGBDGcF6xfWfHoafH4/8CWf3w/vfdIaqhZAnGUASY4JxNlGiNgAG7y19iR4H8Q+86FWwl7f9LAb2csZaEmOce2vCcQ5ptgNoKKLJee5NDw2AbjOCuKs/HVwXg2gbsMlVBdt3/0ApSdOQW5pLRNljc3Q3tnFunLDf41BUc2HW8B5M4BmH7U/NvVdGwRNWV3Y9NN46qD/16FNz0zdn4YTn30OWG5BWHheDKANiAueq68/mghkAm1w5y9+CzK9lRWcNwNoh2VLG7aZ39TX0UnU5IJse+kmQKRQ17wZQEeBcEI5Hwm8LN+x3haDY8cNsB0VUMGyHwmKQ3YWyRosm3gzsLS8EnaQvLLa0Oni2NrPw8WOr8Di8jKEU3D+ozxP09shUaaCt+hsZheN1YBkt1JIZnJBEnkMRFJqPeJxBSQrc0OuBJd4MzA4Mhp2kC87u4C2lECKSrsJPDjeTFfCEZVmb1ag41J3WAOz3jlIVeawwm+Mo6pccLz7we4a4NrIen7qg3ic5oRPwGn48coABAIB6B24Cjp3ZUQbmWQ3jhLIRKoiO/zMK7Ph8pX+LUfpzu5eUFncO2sARWPrOeDSzKwXWs59AVp7MRyhMyGFzmKuW8+3wYzXG/a5B/MLcKb9IkhZzkTbNqB0lDOtMD5NAYO/D8NO6frQDabQk5V5TN+P3YCzEnCtFRLSM9bTgNYWMLPMt2a9c6DUF/7fsYgMSFHrtmcA/ZCWGV2QJN/czx+FpbQKVn0+3uBXfT4oLKkMOVaiXA1HMw0gieYn5duKnG+4uklBcQVMz8zyMvM2TzVH96IhUZ7ZE7GBuDjzEyIpVSfCqAW2L1bozPDbjeGYcp7WFrDDP2Sow3H8KUG0iieIl0VSskWIkf5wA6DeX/F+A0xM3owYfPzvm1Be38C1ZwREGPWVSEq9EjX4FiNS2RtCjLzMlVYamxtOX2iHq9euM4YWF5eYQNfoHvpMYzvOvVtjVP9hKZ0QM/hWI6RYhFFDkR4Zog2hlBoR4qRasJNi6gOjzUKMvMcbOEZNizCqfFt5vl0lEcTzQinZIMSo5e3Dk6uoxpJw9d69ABSJidfWii0Q5ax3HZbKd+/NDJeEuDxehJF9EYD/Eo/TyYJ9qkOoCIUYOR4C/BaqHfQqVrDfFSeTPS2SktUiKTm6FtXo3l5zHehAgq36D4PYBplTH6I9AAAAAElFTkSuQmCC;" parent="1" vertex="1">
          <mxGeometry x="-578.87" y="-680" width="37" height="37" as="geometry" />
        </mxCell>
        <mxCell id="OrC8Zif0g1K16IDU79yB-61" value="" style="shape=image;verticalLabelPosition=bottom;labelBackgroundColor=default;verticalAlign=top;aspect=fixed;imageAspect=0;image=data:image/png,iVBORw0KGgoAAAANSUhEUgAAADAAAAAwCAYAAABXAvmHAAAACXBIWXMAAAsTAAALEwEAmpwYAAAFQElEQVR4nO2Za0xbZRjHO42amGjUxPjBL37QT36TrAVBGaw9PXDac05LO6690VJ6Z+VSLqJcjJExTNQRE9hcsi2CkRljIpmRwCRmQDLNnJCJKBfZXLaRAWXcW/uY94whlPaclh4uH/gnTzg55fT9/d/3eZ73bY5AcKAD7T/Jja6XCKOjV2n3/Kuwe/yEwdaNGwwvCva71Gr147je2oygVa4q2Bi0zeNP09kuqNXqJwX7UbjO6qQtJQvB4MFBWUqXcL21XLBflJ5nxuVm920u8OAgzUX3sTwrvWfgcqPtVVm+4+dowTdGhqsKZKaiEXmW6fVdA8dznc8SBufXSkd5IBb4jaF0VAQIvb2L0ume20n2Q+n59nraWrbKF7gqKBS2Mh+hd7TU1NQ8xis5rrHoSHOxlwvA09gMHd/3wNCfY3Drzj1YXllhAl2jex2Xupn/4Sz0wuJ5XGO1xQ5usCXJTUWjbIOpi96Bj862we27UxCp/rk7BU1n25hn2Y247+BaKxY1OGZ0v0AYnQMZzkrWAez1TTAyMQnb1R/jk2CrO8le6M5KQCwkWfZMxAbkBccnuJa5+uMWmJ2bh1g1N78AtafOsI5FGJyQekw3HLGBDGcF6xfWfHoafH4/8CWf3w/vfdIaqhZAnGUASY4JxNlGiNgAG7y19iR4H8Q+86FWwl7f9LAb2csZaEmOce2vCcQ5ptgNoKKLJee5NDw2AbjOCuKs/HVwXg2gbsMlVBdt3/0ApSdOQW5pLRNljc3Q3tnFunLDf41BUc2HW8B5M4BmH7U/NvVdGwRNWV3Y9NN46qD/16FNz0zdn4YTn30OWG5BWHheDKANiAueq68/mghkAm1w5y9+CzK9lRWcNwNoh2VLG7aZ39TX0UnU5IJse+kmQKRQ17wZQEeBcEI5Hwm8LN+x3haDY8cNsB0VUMGyHwmKQ3YWyRosm3gzsLS8EnaQvLLa0Oni2NrPw8WOr8Di8jKEU3D+ozxP09shUaaCt+hsZheN1YBkt1JIZnJBEnkMRFJqPeJxBSQrc0OuBJd4MzA4Mhp2kC87u4C2lECKSrsJPDjeTFfCEZVmb1ag41J3WAOz3jlIVeawwm+Mo6pccLz7we4a4NrIen7qg3ic5oRPwGn48coABAIB6B24Cjp3ZUQbmWQ3jhLIRKoiO/zMK7Ph8pX+LUfpzu5eUFncO2sARWPrOeDSzKwXWs59AVp7MRyhMyGFzmKuW8+3wYzXG/a5B/MLcKb9IkhZzkTbNqB0lDOtMD5NAYO/D8NO6frQDabQk5V5TN+P3YCzEnCtFRLSM9bTgNYWMLPMt2a9c6DUF/7fsYgMSFHrtmcA/ZCWGV2QJN/czx+FpbQKVn0+3uBXfT4oLKkMOVaiXA1HMw0gieYn5duKnG+4uklBcQVMz8zyMvM2TzVH96IhUZ7ZE7GBuDjzEyIpVSfCqAW2L1bozPDbjeGYcp7WFrDDP2Sow3H8KUG0iieIl0VSskWIkf5wA6DeX/F+A0xM3owYfPzvm1Be38C1ZwREGPWVSEq9EjX4FiNS2RtCjLzMlVYamxtOX2iHq9euM4YWF5eYQNfoHvpMYzvOvVtjVP9hKZ0QM/hWI6RYhFFDkR4Zog2hlBoR4qRasJNi6gOjzUKMvMcbOEZNizCqfFt5vl0lEcTzQinZIMSo5e3Dk6uoxpJw9d69ABSJidfWii0Q5ax3HZbKd+/NDJeEuDxehJF9EYD/Eo/TyYJ9qkOoCIUYOR4C/BaqHfQqVrDfFSeTPS2SktUiKTm6FtXo3l5zHehAgq36D4PYBplTH6I9AAAAAElFTkSuQmCC;" parent="1" vertex="1">
          <mxGeometry x="-210.00000000000006" y="-578" width="35.87" height="35.87" as="geometry" />
        </mxCell>
        <mxCell id="OrC8Zif0g1K16IDU79yB-62" value="" style="shape=image;verticalLabelPosition=bottom;labelBackgroundColor=default;verticalAlign=top;aspect=fixed;imageAspect=0;image=data:image/png,iVBORw0KGgoAAAANSUhEUgAAADAAAAAwCAYAAABXAvmHAAAACXBIWXMAAAsTAAALEwEAmpwYAAAFQElEQVR4nO2Za0xbZRjHO42amGjUxPjBL37QT36TrAVBGaw9PXDac05LO6690VJ6Z+VSLqJcjJExTNQRE9hcsi2CkRljIpmRwCRmQDLNnJCJKBfZXLaRAWXcW/uY94whlPaclh4uH/gnTzg55fT9/d/3eZ73bY5AcKAD7T/Jja6XCKOjV2n3/Kuwe/yEwdaNGwwvCva71Gr147je2oygVa4q2Bi0zeNP09kuqNXqJwX7UbjO6qQtJQvB4MFBWUqXcL21XLBflJ5nxuVm920u8OAgzUX3sTwrvWfgcqPtVVm+4+dowTdGhqsKZKaiEXmW6fVdA8dznc8SBufXSkd5IBb4jaF0VAQIvb2L0ume20n2Q+n59nraWrbKF7gqKBS2Mh+hd7TU1NQ8xis5rrHoSHOxlwvA09gMHd/3wNCfY3Drzj1YXllhAl2jex2Xupn/4Sz0wuJ5XGO1xQ5usCXJTUWjbIOpi96Bj862we27UxCp/rk7BU1n25hn2Y247+BaKxY1OGZ0v0AYnQMZzkrWAez1TTAyMQnb1R/jk2CrO8le6M5KQCwkWfZMxAbkBccnuJa5+uMWmJ2bh1g1N78AtafOsI5FGJyQekw3HLGBDGcF6xfWfHoafH4/8CWf3w/vfdIaqhZAnGUASY4JxNlGiNgAG7y19iR4H8Q+86FWwl7f9LAb2csZaEmOce2vCcQ5ptgNoKKLJee5NDw2AbjOCuKs/HVwXg2gbsMlVBdt3/0ApSdOQW5pLRNljc3Q3tnFunLDf41BUc2HW8B5M4BmH7U/NvVdGwRNWV3Y9NN46qD/16FNz0zdn4YTn30OWG5BWHheDKANiAueq68/mghkAm1w5y9+CzK9lRWcNwNoh2VLG7aZ39TX0UnU5IJse+kmQKRQ17wZQEeBcEI5Hwm8LN+x3haDY8cNsB0VUMGyHwmKQ3YWyRosm3gzsLS8EnaQvLLa0Oni2NrPw8WOr8Di8jKEU3D+ozxP09shUaaCt+hsZheN1YBkt1JIZnJBEnkMRFJqPeJxBSQrc0OuBJd4MzA4Mhp2kC87u4C2lECKSrsJPDjeTFfCEZVmb1ag41J3WAOz3jlIVeawwm+Mo6pccLz7we4a4NrIen7qg3ic5oRPwGn48coABAIB6B24Cjp3ZUQbmWQ3jhLIRKoiO/zMK7Ph8pX+LUfpzu5eUFncO2sARWPrOeDSzKwXWs59AVp7MRyhMyGFzmKuW8+3wYzXG/a5B/MLcKb9IkhZzkTbNqB0lDOtMD5NAYO/D8NO6frQDabQk5V5TN+P3YCzEnCtFRLSM9bTgNYWMLPMt2a9c6DUF/7fsYgMSFHrtmcA/ZCWGV2QJN/czx+FpbQKVn0+3uBXfT4oLKkMOVaiXA1HMw0gieYn5duKnG+4uklBcQVMz8zyMvM2TzVH96IhUZ7ZE7GBuDjzEyIpVSfCqAW2L1bozPDbjeGYcp7WFrDDP2Sow3H8KUG0iieIl0VSskWIkf5wA6DeX/F+A0xM3owYfPzvm1Be38C1ZwREGPWVSEq9EjX4FiNS2RtCjLzMlVYamxtOX2iHq9euM4YWF5eYQNfoHvpMYzvOvVtjVP9hKZ0QM/hWI6RYhFFDkR4Zog2hlBoR4qRasJNi6gOjzUKMvMcbOEZNizCqfFt5vl0lEcTzQinZIMSo5e3Dk6uoxpJw9d69ABSJidfWii0Q5ax3HZbKd+/NDJeEuDxehJF9EYD/Eo/TyYJ9qkOoCIUYOR4C/BaqHfQqVrDfFSeTPS2SktUiKTm6FtXo3l5zHehAgq36D4PYBplTH6I9AAAAAElFTkSuQmCC;" parent="1" vertex="1">
          <mxGeometry x="-578.87" y="-311.5" width="35.87" height="35.87" as="geometry" />
        </mxCell>
        <mxCell id="OrC8Zif0g1K16IDU79yB-63" value="" style="shape=image;verticalLabelPosition=bottom;labelBackgroundColor=default;verticalAlign=top;aspect=fixed;imageAspect=0;image=data:image/png,iVBORw0KGgoAAAANSUhEUgAAADAAAAAwCAYAAABXAvmHAAAACXBIWXMAAAsTAAALEwEAmpwYAAAFQElEQVR4nO2Za0xbZRjHO42amGjUxPjBL37QT36TrAVBGaw9PXDac05LO6690VJ6Z+VSLqJcjJExTNQRE9hcsi2CkRljIpmRwCRmQDLNnJCJKBfZXLaRAWXcW/uY94whlPaclh4uH/gnTzg55fT9/d/3eZ73bY5AcKAD7T/Jja6XCKOjV2n3/Kuwe/yEwdaNGwwvCva71Gr147je2oygVa4q2Bi0zeNP09kuqNXqJwX7UbjO6qQtJQvB4MFBWUqXcL21XLBflJ5nxuVm920u8OAgzUX3sTwrvWfgcqPtVVm+4+dowTdGhqsKZKaiEXmW6fVdA8dznc8SBufXSkd5IBb4jaF0VAQIvb2L0ume20n2Q+n59nraWrbKF7gqKBS2Mh+hd7TU1NQ8xis5rrHoSHOxlwvA09gMHd/3wNCfY3Drzj1YXllhAl2jex2Xupn/4Sz0wuJ5XGO1xQ5usCXJTUWjbIOpi96Bj862we27UxCp/rk7BU1n25hn2Y247+BaKxY1OGZ0v0AYnQMZzkrWAez1TTAyMQnb1R/jk2CrO8le6M5KQCwkWfZMxAbkBccnuJa5+uMWmJ2bh1g1N78AtafOsI5FGJyQekw3HLGBDGcF6xfWfHoafH4/8CWf3w/vfdIaqhZAnGUASY4JxNlGiNgAG7y19iR4H8Q+86FWwl7f9LAb2csZaEmOce2vCcQ5ptgNoKKLJee5NDw2AbjOCuKs/HVwXg2gbsMlVBdt3/0ApSdOQW5pLRNljc3Q3tnFunLDf41BUc2HW8B5M4BmH7U/NvVdGwRNWV3Y9NN46qD/16FNz0zdn4YTn30OWG5BWHheDKANiAueq68/mghkAm1w5y9+CzK9lRWcNwNoh2VLG7aZ39TX0UnU5IJse+kmQKRQ17wZQEeBcEI5Hwm8LN+x3haDY8cNsB0VUMGyHwmKQ3YWyRosm3gzsLS8EnaQvLLa0Oni2NrPw8WOr8Di8jKEU3D+ozxP09shUaaCt+hsZheN1YBkt1JIZnJBEnkMRFJqPeJxBSQrc0OuBJd4MzA4Mhp2kC87u4C2lECKSrsJPDjeTFfCEZVmb1ag41J3WAOz3jlIVeawwm+Mo6pccLz7we4a4NrIen7qg3ic5oRPwGn48coABAIB6B24Cjp3ZUQbmWQ3jhLIRKoiO/zMK7Ph8pX+LUfpzu5eUFncO2sARWPrOeDSzKwXWs59AVp7MRyhMyGFzmKuW8+3wYzXG/a5B/MLcKb9IkhZzkTbNqB0lDOtMD5NAYO/D8NO6frQDabQk5V5TN+P3YCzEnCtFRLSM9bTgNYWMLPMt2a9c6DUF/7fsYgMSFHrtmcA/ZCWGV2QJN/czx+FpbQKVn0+3uBXfT4oLKkMOVaiXA1HMw0gieYn5duKnG+4uklBcQVMz8zyMvM2TzVH96IhUZ7ZE7GBuDjzEyIpVSfCqAW2L1bozPDbjeGYcp7WFrDDP2Sow3H8KUG0iieIl0VSskWIkf5wA6DeX/F+A0xM3owYfPzvm1Be38C1ZwREGPWVSEq9EjX4FiNS2RtCjLzMlVYamxtOX2iHq9euM4YWF5eYQNfoHvpMYzvOvVtjVP9hKZ0QM/hWI6RYhFFDkR4Zog2hlBoR4qRasJNi6gOjzUKMvMcbOEZNizCqfFt5vl0lEcTzQinZIMSo5e3Dk6uoxpJw9d69ABSJidfWii0Q5ax3HZbKd+/NDJeEuDxehJF9EYD/Eo/TyYJ9qkOoCIUYOR4C/BaqHfQqVrDfFSeTPS2SktUiKTm6FtXo3l5zHehAgq36D4PYBplTH6I9AAAAAElFTkSuQmCC;" parent="1" vertex="1">
          <mxGeometry x="-580.0000000000001" y="-242.87" width="35.87" height="35.87" as="geometry" />
        </mxCell>
        <mxCell id="OrC8Zif0g1K16IDU79yB-64" value="" style="shape=image;verticalLabelPosition=bottom;labelBackgroundColor=default;verticalAlign=top;aspect=fixed;imageAspect=0;image=data:image/png,iVBORw0KGgoAAAANSUhEUgAAADAAAAAwCAYAAABXAvmHAAAACXBIWXMAAAsTAAALEwEAmpwYAAAFQElEQVR4nO2Za0xbZRjHO42amGjUxPjBL37QT36TrAVBGaw9PXDac05LO6690VJ6Z+VSLqJcjJExTNQRE9hcsi2CkRljIpmRwCRmQDLNnJCJKBfZXLaRAWXcW/uY94whlPaclh4uH/gnTzg55fT9/d/3eZ73bY5AcKAD7T/Jja6XCKOjV2n3/Kuwe/yEwdaNGwwvCva71Gr147je2oygVa4q2Bi0zeNP09kuqNXqJwX7UbjO6qQtJQvB4MFBWUqXcL21XLBflJ5nxuVm920u8OAgzUX3sTwrvWfgcqPtVVm+4+dowTdGhqsKZKaiEXmW6fVdA8dznc8SBufXSkd5IBb4jaF0VAQIvb2L0ume20n2Q+n59nraWrbKF7gqKBS2Mh+hd7TU1NQ8xis5rrHoSHOxlwvA09gMHd/3wNCfY3Drzj1YXllhAl2jex2Xupn/4Sz0wuJ5XGO1xQ5usCXJTUWjbIOpi96Bj862we27UxCp/rk7BU1n25hn2Y247+BaKxY1OGZ0v0AYnQMZzkrWAez1TTAyMQnb1R/jk2CrO8le6M5KQCwkWfZMxAbkBccnuJa5+uMWmJ2bh1g1N78AtafOsI5FGJyQekw3HLGBDGcF6xfWfHoafH4/8CWf3w/vfdIaqhZAnGUASY4JxNlGiNgAG7y19iR4H8Q+86FWwl7f9LAb2csZaEmOce2vCcQ5ptgNoKKLJee5NDw2AbjOCuKs/HVwXg2gbsMlVBdt3/0ApSdOQW5pLRNljc3Q3tnFunLDf41BUc2HW8B5M4BmH7U/NvVdGwRNWV3Y9NN46qD/16FNz0zdn4YTn30OWG5BWHheDKANiAueq68/mghkAm1w5y9+CzK9lRWcNwNoh2VLG7aZ39TX0UnU5IJse+kmQKRQ17wZQEeBcEI5Hwm8LN+x3haDY8cNsB0VUMGyHwmKQ3YWyRosm3gzsLS8EnaQvLLa0Oni2NrPw8WOr8Di8jKEU3D+ozxP09shUaaCt+hsZheN1YBkt1JIZnJBEnkMRFJqPeJxBSQrc0OuBJd4MzA4Mhp2kC87u4C2lECKSrsJPDjeTFfCEZVmb1ag41J3WAOz3jlIVeawwm+Mo6pccLz7we4a4NrIen7qg3ic5oRPwGn48coABAIB6B24Cjp3ZUQbmWQ3jhLIRKoiO/zMK7Ph8pX+LUfpzu5eUFncO2sARWPrOeDSzKwXWs59AVp7MRyhMyGFzmKuW8+3wYzXG/a5B/MLcKb9IkhZzkTbNqB0lDOtMD5NAYO/D8NO6frQDabQk5V5TN+P3YCzEnCtFRLSM9bTgNYWMLPMt2a9c6DUF/7fsYgMSFHrtmcA/ZCWGV2QJN/czx+FpbQKVn0+3uBXfT4oLKkMOVaiXA1HMw0gieYn5duKnG+4uklBcQVMz8zyMvM2TzVH96IhUZ7ZE7GBuDjzEyIpVSfCqAW2L1bozPDbjeGYcp7WFrDDP2Sow3H8KUG0iieIl0VSskWIkf5wA6DeX/F+A0xM3owYfPzvm1Be38C1ZwREGPWVSEq9EjX4FiNS2RtCjLzMlVYamxtOX2iHq9euM4YWF5eYQNfoHvpMYzvOvVtjVP9hKZ0QM/hWI6RYhFFDkR4Zog2hlBoR4qRasJNi6gOjzUKMvMcbOEZNizCqfFt5vl0lEcTzQinZIMSo5e3Dk6uoxpJw9d69ABSJidfWii0Q5ax3HZbKd+/NDJeEuDxehJF9EYD/Eo/TyYJ9qkOoCIUYOR4C/BaqHfQqVrDfFSeTPS2SktUiKTm6FtXo3l5zHehAgq36D4PYBplTH6I9AAAAAElFTkSuQmCC;" parent="1" vertex="1">
          <mxGeometry x="-580" y="-176.44" width="35.87" height="35.87" as="geometry" />
        </mxCell>
        <mxCell id="OrC8Zif0g1K16IDU79yB-65" value="" style="shape=image;verticalLabelPosition=bottom;labelBackgroundColor=default;verticalAlign=top;aspect=fixed;imageAspect=0;image=data:image/png,iVBORw0KGgoAAAANSUhEUgAAADAAAAAwCAYAAABXAvmHAAAACXBIWXMAAAsTAAALEwEAmpwYAAAFQElEQVR4nO2Za0xbZRjHO42amGjUxPjBL37QT36TrAVBGaw9PXDac05LO6690VJ6Z+VSLqJcjJExTNQRE9hcsi2CkRljIpmRwCRmQDLNnJCJKBfZXLaRAWXcW/uY94whlPaclh4uH/gnTzg55fT9/d/3eZ73bY5AcKAD7T/Jja6XCKOjV2n3/Kuwe/yEwdaNGwwvCva71Gr147je2oygVa4q2Bi0zeNP09kuqNXqJwX7UbjO6qQtJQvB4MFBWUqXcL21XLBflJ5nxuVm920u8OAgzUX3sTwrvWfgcqPtVVm+4+dowTdGhqsKZKaiEXmW6fVdA8dznc8SBufXSkd5IBb4jaF0VAQIvb2L0ume20n2Q+n59nraWrbKF7gqKBS2Mh+hd7TU1NQ8xis5rrHoSHOxlwvA09gMHd/3wNCfY3Drzj1YXllhAl2jex2Xupn/4Sz0wuJ5XGO1xQ5usCXJTUWjbIOpi96Bj862we27UxCp/rk7BU1n25hn2Y247+BaKxY1OGZ0v0AYnQMZzkrWAez1TTAyMQnb1R/jk2CrO8le6M5KQCwkWfZMxAbkBccnuJa5+uMWmJ2bh1g1N78AtafOsI5FGJyQekw3HLGBDGcF6xfWfHoafH4/8CWf3w/vfdIaqhZAnGUASY4JxNlGiNgAG7y19iR4H8Q+86FWwl7f9LAb2csZaEmOce2vCcQ5ptgNoKKLJee5NDw2AbjOCuKs/HVwXg2gbsMlVBdt3/0ApSdOQW5pLRNljc3Q3tnFunLDf41BUc2HW8B5M4BmH7U/NvVdGwRNWV3Y9NN46qD/16FNz0zdn4YTn30OWG5BWHheDKANiAueq68/mghkAm1w5y9+CzK9lRWcNwNoh2VLG7aZ39TX0UnU5IJse+kmQKRQ17wZQEeBcEI5Hwm8LN+x3haDY8cNsB0VUMGyHwmKQ3YWyRosm3gzsLS8EnaQvLLa0Oni2NrPw8WOr8Di8jKEU3D+ozxP09shUaaCt+hsZheN1YBkt1JIZnJBEnkMRFJqPeJxBSQrc0OuBJd4MzA4Mhp2kC87u4C2lECKSrsJPDjeTFfCEZVmb1ag41J3WAOz3jlIVeawwm+Mo6pccLz7we4a4NrIen7qg3ic5oRPwGn48coABAIB6B24Cjp3ZUQbmWQ3jhLIRKoiO/zMK7Ph8pX+LUfpzu5eUFncO2sARWPrOeDSzKwXWs59AVp7MRyhMyGFzmKuW8+3wYzXG/a5B/MLcKb9IkhZzkTbNqB0lDOtMD5NAYO/D8NO6frQDabQk5V5TN+P3YCzEnCtFRLSM9bTgNYWMLPMt2a9c6DUF/7fsYgMSFHrtmcA/ZCWGV2QJN/czx+FpbQKVn0+3uBXfT4oLKkMOVaiXA1HMw0gieYn5duKnG+4uklBcQVMz8zyMvM2TzVH96IhUZ7ZE7GBuDjzEyIpVSfCqAW2L1bozPDbjeGYcp7WFrDDP2Sow3H8KUG0iieIl0VSskWIkf5wA6DeX/F+A0xM3owYfPzvm1Be38C1ZwREGPWVSEq9EjX4FiNS2RtCjLzMlVYamxtOX2iHq9euM4YWF5eYQNfoHvpMYzvOvVtjVP9hKZ0QM/hWI6RYhFFDkR4Zog2hlBoR4qRasJNi6gOjzUKMvMcbOEZNizCqfFt5vl0lEcTzQinZIMSo5e3Dk6uoxpJw9d69ABSJidfWii0Q5ax3HZbKd+/NDJeEuDxehJF9EYD/Eo/TyYJ9qkOoCIUYOR4C/BaqHfQqVrDfFSeTPS2SktUiKTm6FtXo3l5zHehAgq36D4PYBplTH6I9AAAAAElFTkSuQmCC;" parent="1" vertex="1">
          <mxGeometry x="-412.12000000000006" y="-792.87" width="35.87" height="35.87" as="geometry" />
        </mxCell>
        <mxCell id="OrC8Zif0g1K16IDU79yB-66" value="" style="shape=image;verticalLabelPosition=bottom;labelBackgroundColor=default;verticalAlign=top;aspect=fixed;imageAspect=0;image=data:image/png,iVBORw0KGgoAAAANSUhEUgAAADAAAAAwCAYAAABXAvmHAAAACXBIWXMAAAsTAAALEwEAmpwYAAAFQElEQVR4nO2Za0xbZRjHO42amGjUxPjBL37QT36TrAVBGaw9PXDac05LO6690VJ6Z+VSLqJcjJExTNQRE9hcsi2CkRljIpmRwCRmQDLNnJCJKBfZXLaRAWXcW/uY94whlPaclh4uH/gnTzg55fT9/d/3eZ73bY5AcKAD7T/Jja6XCKOjV2n3/Kuwe/yEwdaNGwwvCva71Gr147je2oygVa4q2Bi0zeNP09kuqNXqJwX7UbjO6qQtJQvB4MFBWUqXcL21XLBflJ5nxuVm920u8OAgzUX3sTwrvWfgcqPtVVm+4+dowTdGhqsKZKaiEXmW6fVdA8dznc8SBufXSkd5IBb4jaF0VAQIvb2L0ume20n2Q+n59nraWrbKF7gqKBS2Mh+hd7TU1NQ8xis5rrHoSHOxlwvA09gMHd/3wNCfY3Drzj1YXllhAl2jex2Xupn/4Sz0wuJ5XGO1xQ5usCXJTUWjbIOpi96Bj862we27UxCp/rk7BU1n25hn2Y247+BaKxY1OGZ0v0AYnQMZzkrWAez1TTAyMQnb1R/jk2CrO8le6M5KQCwkWfZMxAbkBccnuJa5+uMWmJ2bh1g1N78AtafOsI5FGJyQekw3HLGBDGcF6xfWfHoafH4/8CWf3w/vfdIaqhZAnGUASY4JxNlGiNgAG7y19iR4H8Q+86FWwl7f9LAb2csZaEmOce2vCcQ5ptgNoKKLJee5NDw2AbjOCuKs/HVwXg2gbsMlVBdt3/0ApSdOQW5pLRNljc3Q3tnFunLDf41BUc2HW8B5M4BmH7U/NvVdGwRNWV3Y9NN46qD/16FNz0zdn4YTn30OWG5BWHheDKANiAueq68/mghkAm1w5y9+CzK9lRWcNwNoh2VLG7aZ39TX0UnU5IJse+kmQKRQ17wZQEeBcEI5Hwm8LN+x3haDY8cNsB0VUMGyHwmKQ3YWyRosm3gzsLS8EnaQvLLa0Oni2NrPw8WOr8Di8jKEU3D+ozxP09shUaaCt+hsZheN1YBkt1JIZnJBEnkMRFJqPeJxBSQrc0OuBJd4MzA4Mhp2kC87u4C2lECKSrsJPDjeTFfCEZVmb1ag41J3WAOz3jlIVeawwm+Mo6pccLz7we4a4NrIen7qg3ic5oRPwGn48coABAIB6B24Cjp3ZUQbmWQ3jhLIRKoiO/zMK7Ph8pX+LUfpzu5eUFncO2sARWPrOeDSzKwXWs59AVp7MRyhMyGFzmKuW8+3wYzXG/a5B/MLcKb9IkhZzkTbNqB0lDOtMD5NAYO/D8NO6frQDabQk5V5TN+P3YCzEnCtFRLSM9bTgNYWMLPMt2a9c6DUF/7fsYgMSFHrtmcA/ZCWGV2QJN/czx+FpbQKVn0+3uBXfT4oLKkMOVaiXA1HMw0gieYn5duKnG+4uklBcQVMz8zyMvM2TzVH96IhUZ7ZE7GBuDjzEyIpVSfCqAW2L1bozPDbjeGYcp7WFrDDP2Sow3H8KUG0iieIl0VSskWIkf5wA6DeX/F+A0xM3owYfPzvm1Be38C1ZwREGPWVSEq9EjX4FiNS2RtCjLzMlVYamxtOX2iHq9euM4YWF5eYQNfoHvpMYzvOvVtjVP9hKZ0QM/hWI6RYhFFDkR4Zog2hlBoR4qRasJNi6gOjzUKMvMcbOEZNizCqfFt5vl0lEcTzQinZIMSo5e3Dk6uoxpJw9d69ABSJidfWii0Q5ax3HZbKd+/NDJeEuDxehJF9EYD/Eo/TyYJ9qkOoCIUYOR4C/BaqHfQqVrDfFSeTPS2SktUiKTm6FtXo3l5zHehAgq36D4PYBplTH6I9AAAAAElFTkSuQmCC;" parent="1" vertex="1">
          <mxGeometry x="-145.87000000000006" y="-787.87" width="35.87" height="35.87" as="geometry" />
        </mxCell>
        <mxCell id="OrC8Zif0g1K16IDU79yB-67" value="" style="shape=image;verticalLabelPosition=bottom;labelBackgroundColor=default;verticalAlign=top;aspect=fixed;imageAspect=0;image=data:image/png,iVBORw0KGgoAAAANSUhEUgAAADAAAAAwCAYAAABXAvmHAAAACXBIWXMAAAsTAAALEwEAmpwYAAAFQElEQVR4nO2Za0xbZRjHO42amGjUxPjBL37QT36TrAVBGaw9PXDac05LO6690VJ6Z+VSLqJcjJExTNQRE9hcsi2CkRljIpmRwCRmQDLNnJCJKBfZXLaRAWXcW/uY94whlPaclh4uH/gnTzg55fT9/d/3eZ73bY5AcKAD7T/Jja6XCKOjV2n3/Kuwe/yEwdaNGwwvCva71Gr147je2oygVa4q2Bi0zeNP09kuqNXqJwX7UbjO6qQtJQvB4MFBWUqXcL21XLBflJ5nxuVm920u8OAgzUX3sTwrvWfgcqPtVVm+4+dowTdGhqsKZKaiEXmW6fVdA8dznc8SBufXSkd5IBb4jaF0VAQIvb2L0ume20n2Q+n59nraWrbKF7gqKBS2Mh+hd7TU1NQ8xis5rrHoSHOxlwvA09gMHd/3wNCfY3Drzj1YXllhAl2jex2Xupn/4Sz0wuJ5XGO1xQ5usCXJTUWjbIOpi96Bj862we27UxCp/rk7BU1n25hn2Y247+BaKxY1OGZ0v0AYnQMZzkrWAez1TTAyMQnb1R/jk2CrO8le6M5KQCwkWfZMxAbkBccnuJa5+uMWmJ2bh1g1N78AtafOsI5FGJyQekw3HLGBDGcF6xfWfHoafH4/8CWf3w/vfdIaqhZAnGUASY4JxNlGiNgAG7y19iR4H8Q+86FWwl7f9LAb2csZaEmOce2vCcQ5ptgNoKKLJee5NDw2AbjOCuKs/HVwXg2gbsMlVBdt3/0ApSdOQW5pLRNljc3Q3tnFunLDf41BUc2HW8B5M4BmH7U/NvVdGwRNWV3Y9NN46qD/16FNz0zdn4YTn30OWG5BWHheDKANiAueq68/mghkAm1w5y9+CzK9lRWcNwNoh2VLG7aZ39TX0UnU5IJse+kmQKRQ17wZQEeBcEI5Hwm8LN+x3haDY8cNsB0VUMGyHwmKQ3YWyRosm3gzsLS8EnaQvLLa0Oni2NrPw8WOr8Di8jKEU3D+ozxP09shUaaCt+hsZheN1YBkt1JIZnJBEnkMRFJqPeJxBSQrc0OuBJd4MzA4Mhp2kC87u4C2lECKSrsJPDjeTFfCEZVmb1ag41J3WAOz3jlIVeawwm+Mo6pccLz7we4a4NrIen7qg3ic5oRPwGn48coABAIB6B24Cjp3ZUQbmWQ3jhLIRKoiO/zMK7Ph8pX+LUfpzu5eUFncO2sARWPrOeDSzKwXWs59AVp7MRyhMyGFzmKuW8+3wYzXG/a5B/MLcKb9IkhZzkTbNqB0lDOtMD5NAYO/D8NO6frQDabQk5V5TN+P3YCzEnCtFRLSM9bTgNYWMLPMt2a9c6DUF/7fsYgMSFHrtmcA/ZCWGV2QJN/czx+FpbQKVn0+3uBXfT4oLKkMOVaiXA1HMw0gieYn5duKnG+4uklBcQVMz8zyMvM2TzVH96IhUZ7ZE7GBuDjzEyIpVSfCqAW2L1bozPDbjeGYcp7WFrDDP2Sow3H8KUG0iieIl0VSskWIkf5wA6DeX/F+A0xM3owYfPzvm1Be38C1ZwREGPWVSEq9EjX4FiNS2RtCjLzMlVYamxtOX2iHq9euM4YWF5eYQNfoHvpMYzvOvVtjVP9hKZ0QM/hWI6RYhFFDkR4Zog2hlBoR4qRasJNi6gOjzUKMvMcbOEZNizCqfFt5vl0lEcTzQinZIMSo5e3Dk6uoxpJw9d69ABSJidfWii0Q5ax3HZbKd+/NDJeEuDxehJF9EYD/Eo/TyYJ9qkOoCIUYOR4C/BaqHfQqVrDfFSeTPS2SktUiKTm6FtXo3l5zHehAgq36D4PYBplTH6I9AAAAAElFTkSuQmCC;" parent="1" vertex="1">
          <mxGeometry x="-575.8700000000001" y="-880" width="35.87" height="35.87" as="geometry" />
        </mxCell>
        <mxCell id="6eSPJhJ6c-W7kIB5UDdA-1" value="" style="strokeWidth=2;html=1;shape=mxgraph.flowchart.database;whiteSpace=wrap;" vertex="1" parent="1">
          <mxGeometry x="-40" y="-420" width="87" height="98" as="geometry" />
        </mxCell>
        <mxCell id="6eSPJhJ6c-W7kIB5UDdA-3" value="" style="shape=image;verticalLabelPosition=bottom;labelBackgroundColor=default;verticalAlign=top;aspect=fixed;imageAspect=0;image=data:image/png,iVBORw0KGgoAAAANSUhEUgAAADAAAAAwCAYAAABXAvmHAAAACXBIWXMAAAsTAAALEwEAmpwYAAAH+klEQVR4nO1ZbWwcVxUdIEgUJFSq8KNgZObNvPdm3szubOKWCBQIQa1E1UpNqSwaNQgBInyrUYRiibZZO7abtLT1rmsc20maUufDXmft+DvgYju2d+NAQtyoNo1JbZxImAJGaUlDomR90Xv2uuvZmdnBSqh/5Er3h6Ud+5x5557z7lqSbtftWp7VR8jKboM+lbSMLUmL/XTIMtb3rVu3QlrO1VZQ8PFOkzzXZpLpOMNwhGFIhoyFToSMmYTFqodXBwqk5VQdjH29w6An4oykOOjMziSwiIxljCYsVnSqgKz8QEAfY+yuThO/2GqQGTvo8WPdMNp4GDrWf1mAPbl2Dfz5ySI4u+kxJzJXkyEjlgzp94EkfeiWA+8yyaZ2k4zFGZ61A093/+bvwcTEBExOTsI7p/8AqWvXIHXliiDidiJJITF2IRkydiVW6fk3FXRrkMidBq0/yvAVN9C8O+//KowerIcL4+OCAO90XZuehvGin8PwF1Z7kkjOzUoqYRk9yRArPFVQ8NElge6TpBXdAbKtzaAX0wPp1W1r18BI7W74U2sLnB8cgMk/noapyUkBfvbGDbj29tvw7tkR+HtrC4wUbshJIvn+rEwnLRZNBDXTF/Aeg9zbYdKuZoav20EevTcEv3n0Yej7zregZ8OD0LHuSxAPaK6khrY+AZBKwcW6Gi+A0B3U4SDToEJF0GVqHp9lpxIW2zwSDH5iEegWK//OTpNWH2X4X3YQLatMGI01wNT4uNA0l8XMzMyCNK5fvgx/7e+FxI9/4Ejib02NcPqB+7PA9AUZNJs6vMw0qNM12K9r8N3P5one9vl8eFnDcNxibkQuJS3j+aFV9DNSl0nrmhm+4fYWp86dW9BzujMJZNabe2qynj9xj2V72wwOGXOg6zI6k0C6f5j3OYhgBYZcTmQwyC5JccPdTXhfsIH3IjDRFMt6PvMPDlnMN4Gt+flQQ1XoDTqfwkDIgAO6BtIzSIZGRlwJdKxfC+f7+8RAOhKYnYVL596EM6XFjvPgpuc+K1tC38/Lg1IkQxOjrs8Nhgzx3K8ohQghs9J2WQbezyoKHNAweDnOaxsL4cQviuD3JU9D4keboXdjIbSvXePpTsNfvAde31goLPTctq1ZgIZCBnQGGLQHGPQH3d2Iz0wD06CKEIjO9yIC6S6RZaijnIj7qWS1QaD7oQdguPhpeKPhkLDRv4yNzdloKrVgpWcf/6Zv+0zO92+DDOp1ClFKF4B7Ekh3WJbFAAl5GR7gTQqv76mFqfPns2YlM8guVFf5Bj0UMqAjwGCvlg16EQGM/ymVIPSeG4l071IQ1GvEU168B7f8DCZODi/YbZrA5bHRRW7k1sctBkcMHaqpO+iMtz8SVdVVUjgv765ShHrDsjybi0gxQlBLvOdEDP7XvgJj8SMwNTEh7kEjjz7sCfw17kxMg5ccZGLvPRqFVkO7OLg68JO+dfkfk7oCZMtRA/87xjDUERVKEfIkke7nFQSHmfepNAd1OLPhQWfgFhMy2ZdDJrwrCYFf6xocCyy21AGLXZTijGTlwAEdwy9VxReRMgWJ1HQj4nBRg3ZTh1ofMnmJEHEyvQ6JzH9PjGkgvaAqEDecHaeBqVCFFSj2QYQPfTVR4YjNvTL13WTM+Xcu4NWUG4cmPN/p5Ljt1lGbC1URBWIe1rmXqlDmU17PKQhe0TAc1okIHW6DXAa5gO/TqADHQWYFmDUXYDU0h43OOQ6GZhcyB3UMEayKN+6HjB+Z1OsUemz6zkzsRluA+cqBHelAc5FXTCewG6uwI8epuMuECssccLlx9gSZuGJ7nVyEkPekYlm+nkvbFVh1lRcf3lcohp0KcjwV+x+toRRaTF1c7JIOAcavFNwqc+YAxtMRVX1IKsM4VIbQpB857FQUqNfdHeeQrgqymUO/SN+mLtwj62Zp+Q8wfnIxQ7t6nH89EwjkSd0m3dvMcIoPXCVRRVjlIsLvSzVEyXKcdDfpqhhifh1uM3X4XXDpMolmBpjt5AYs9o7jPvC/OA4PND7YfnMgfUHjwRT1AXy/TqEroDucmiGGX+wDDa6SwMBzwo/jlCuyCDS7e9n1XeczeQ8wzfHkOPB4Rp68vw+o7vpu1AlU2bTtel8SmTKXAfyazX29yae+aygVXs+3LTvwXod9YBGBLPt00fd+bc5xtt+kHIgSIq7NbS4D7rUPOBLI7BfV+X3AJdC444TR0gjwADvINDHIjnZq6lBH/ewDspxzH9g5n85xl0CrJSqUuAy9E/DDhi4SNpm1DxjQZGi+7ktRQs6IfaAiP//OMoR6/OwDJUie3weyT6WJy4uqWYFm1/egA/Ce+X2g0t8iczKC8WNh+/8aOJFSRaktRug/frTN5dXgMvQNjMBuokKFqogB5jZo1zf/uT2gwz5/dpqKEtJeifF9vr5eLFfVTaUIveWHSPnCPkBu+j4QxfjdKCG1FZRSaSm1Q9MKyhDqLZbllB/73E3cCaT17WvfxXgiSkhRdSDwKelmVFhVP8nlVSLLl/2cyrNqxj5gaPAq33d92GkU475KjL8Rk6SPSLequLzKEBrzk878Mz6G8moE41crMbak/2ftwlgvR+hYicd13IsAvw5HMX4yqqqflj7ICkvSinKEniqR5X+E/RF4K0LpEy/k5d0hLbcqV5QNZQi9sX0+UzIJRAjpj2D8SFiSPiwt9wrffffKZxDaWYZQSwTjby/ZBm/X7ZJuef0Xg6KEWvQcmq4AAAAASUVORK5CYII=;" vertex="1" parent="1">
          <mxGeometry x="-24" y="-383.63" width="48" height="48" as="geometry" />
        </mxCell>
      </root>
    </mxGraphModel>
  </diagram>
</mxfile>
